<svg id="svg1" xmlns="http://www.w3.org/2000/svg" viewBox="0 0 578.19 578.19"><defs><style>.cls-1{fill:#444;}.cls-2{fill:#fff;}</style></defs><circle class="cls-1" cx="289.1" cy="289.1" r="289.1"/><path class="cls-2" d="M153.32,372.49q-39,0-60.82-19.35T70.68,296.25c0-25,7.27-44.28,21.82-57.18s34.82-19.35,60.82-19.35h53.83q39,0,60.82,19.35t21.83,57.18c0,25.22-7.27,44-21.83,56.89s-34.82,19.35-60.82,19.35Zm0-33.46h53.83q18.91,0,28.95-10.48t10-32.3c0-14.55-3.35-25.61-10-32.59s-16.35-10.48-28.95-10.48H153.32q-18.91,0-28.95,10.48t-10,32.59c0,14.74,3.35,25.32,10,32.3S140.71,339,153.32,339Z"/><path class="cls-2" d="M305.72,311.09V257.32h41.13q9.09,0,13.36,4.54t4.28,11.95V285H349.14v-9.29q0-6.27-6.26-6.26H321.06v41.66H305.72Z"/><path class="cls-2" d="M402.5,311.61q-14,0-21.82-6.94t-7.83-20.41c0-9,2.61-15.88,7.83-20.51s12.49-6.94,21.82-6.94h35v12h-35q-6.79,0-10.39,3.76t-3.6,11.69c0,5.29,1.2,9.08,3.6,11.59s5.86,3.76,10.39,3.76h36v12h-36Z"/><path class="cls-2" d="M446.35,311.09V236.44h15.14v20.88h31.74q9.18,0,13.42,4.54t4.23,11.95v37.27H495.74v-35.5q0-6.27-6.26-6.26h-28v41.76H446.35Z"/></svg>