<?xml version="1.0" encoding="UTF-8"?>
<svg id="svg1" xmlns="http://www.w3.org/2000/svg" viewBox="0 0 578.19 578.19">
  <defs>
    <style>
      .cls-1 {
        fill: #fff;
      }

      .cls-2 {
        fill: #444;
      }

      .cls-3 {
        fill: none;
        isolation: isolate;
      }
    </style>
  </defs>
  <rect class="cls-2" width="578.19" height="578.19"/>
  <g class="cls-3">
    <g class="cls-3">
      <path class="cls-1" d="m153.32,372.49c-26,0-46.27-6.45-60.82-19.35-14.55-12.9-21.82-31.86-21.82-56.89s7.27-44.28,21.82-57.18c14.55-12.9,34.82-19.35,60.82-19.35h53.83c25.99,0,46.27,6.45,60.82,19.35,14.55,12.9,21.83,31.96,21.83,57.18s-7.27,43.99-21.83,56.89c-14.55,12.9-34.82,19.35-60.82,19.35h-53.83Zm0-33.46h53.83c12.61,0,22.26-3.49,28.95-10.48,6.69-6.98,10.04-17.75,10.04-32.3s-3.35-25.61-10.04-32.59c-6.69-6.98-16.35-10.48-28.95-10.48h-53.83c-12.61,0-22.26,3.49-28.95,10.48s-10.04,17.85-10.04,32.59,3.35,25.32,10.04,32.3c6.69,6.98,16.34,10.48,28.95,10.48Z"/>
    </g>
  </g>
  <g>
    <g class="cls-3">
      <g class="cls-3">
        <path class="cls-1" d="m305.72,311.09v-53.77h41.13c6.06,0,10.51,1.51,13.36,4.54,2.85,3.03,4.28,7.01,4.28,11.95v11.17h-15.35v-9.29c0-4.18-2.09-6.26-6.26-6.26h-21.82v41.66h-15.35Z"/>
      </g>
    </g>
    <g class="cls-3">
      <g class="cls-3">
        <path class="cls-1" d="m402.5,311.61c-9.33,0-16.6-2.31-21.82-6.94-5.22-4.63-7.83-11.43-7.83-20.41s2.61-15.88,7.83-20.51c5.22-4.63,12.49-6.94,21.82-6.94h34.97v12.01h-34.97c-4.53,0-7.99,1.25-10.39,3.76-2.4,2.51-3.6,6.4-3.6,11.69s1.2,9.08,3.6,11.59c2.4,2.51,5.86,3.76,10.39,3.76h36.02v12.01h-36.02Z"/>
        <path class="cls-1" d="m446.35,311.09v-74.65h15.14v20.88h31.74c6.12,0,10.6,1.51,13.42,4.54s4.23,7.01,4.23,11.95v37.27h-15.14v-35.5c0-4.18-2.09-6.26-6.26-6.26h-27.98v41.76h-15.14Z"/>
      </g>
    </g>
  </g>
</svg>