<?xml version="1.0" encoding="UTF-8" standalone="no"?>
<!-- Created with Inkscape (http://www.inkscape.org/) -->

<svg
   width="199.4567mm"
   height="199.4567mm"
   viewBox="0 0 199.4567 199.45667"
   version="1.1"
   id="svg1"
   xml:space="preserve"
   inkscape:export-filename="../../Downloads/logo.png"
   inkscape:export-xdpi="96"
   inkscape:export-ydpi="96"
   inkscape:version="1.3.2 (091e20ef0f, 2023-11-25)"
   sodipodi:docname="drawing.svg"
   xmlns:inkscape="http://www.inkscape.org/namespaces/inkscape"
   xmlns:sodipodi="http://sodipodi.sourceforge.net/DTD/sodipodi-0.dtd"
   xmlns="http://www.w3.org/2000/svg"
   xmlns:svg="http://www.w3.org/2000/svg"><sodipodi:namedview
     id="namedview1"
     pagecolor="#ffffff"
     bordercolor="#111111"
     borderopacity="1"
     inkscape:showpageshadow="0"
     inkscape:pageopacity="0"
     inkscape:pagecheckerboard="1"
     inkscape:deskcolor="#d1d1d1"
     inkscape:document-units="mm"
     showguides="true"
     inkscape:lockguides="false"
     inkscape:zoom="0.72426347"
     inkscape:cx="601.30052"
     inkscape:cy="327.91934"
     inkscape:window-width="1848"
     inkscape:window-height="995"
     inkscape:window-x="64"
     inkscape:window-y="40"
     inkscape:window-maximized="0"
     inkscape:current-layer="layer1"><sodipodi:guide
       position="99.717019,197.49565"
       orientation="1,0"
       id="guide12"
       inkscape:locked="false" /><sodipodi:guide
       position="-90.246079,100.32223"
       orientation="0,-1"
       id="guide14"
       inkscape:locked="false" /></sodipodi:namedview><defs
     id="defs1"><inkscape:path-effect
       effect="bspline"
       id="path-effect18"
       is_visible="true"
       lpeversion="1.3"
       weight="33.333333"
       steps="2"
       helper_size="0"
       apply_no_weight="true"
       apply_with_weight="true"
       only_selected="false"
       uniform="false" /></defs><g
     inkscape:label="Layer 1"
     inkscape:groupmode="layer"
     id="layer1"
     transform="translate(-0.37892151,-0.41819001)"><circle
       style="display:inline;fill:#0ad3fd;fill-opacity:1;stroke-width:0.264583"
       id="path1"
       cx="100.10727"
       cy="100.14654"
       r="99.728348" /><path
       d="m -55.473864,189.79447 v -17.71406 l 78.350646,0.13626 q 5.995528,0 9.129554,-2.72524 3.270288,-2.8615 3.270288,-9.12955 0,-6.26805 -3.270288,-8.99329 -3.134026,-2.8615 -9.129554,-2.8615 h -48.781793 q -15.125082,0 -23.573325,-7.22189 -8.311982,-7.35815 -8.311982,-21.5294 0,-14.17124 8.311982,-21.393128 8.448243,-7.358148 23.573325,-7.358148 h 76.57924 v 17.714056 l -74.262786,-0.13626 q -5.859266,0 -9.129554,2.72524 -3.270288,2.58898 -3.270288,8.44824 0,5.85927 3.270288,8.58451 3.270288,2.58898 9.129554,2.58898 h 48.781793 q 15.125081,0 23.437063,7.49441 8.448244,7.35815 8.448244,21.93818 0,14.44377 -8.448244,21.93818 -8.311982,7.49441 -23.437063,7.49441 z"
       id="text1"
       clip-path="none"
       style="font-size:136.262px;font-family:'Zen Dots';-inkscape-font-specification:'Zen Dots';fill:#ffffff;stroke-width:0.340652"
       transform="matrix(0.69919186,-0.69919186,0.7151113,0.7151113,0,0)"
       aria-label="S" /><path
       style="fill:#6fc9fd;fill-opacity:1;stroke-width:0.264583"
       d="m 100.12077,29.87463 c 0,0 0.137,26.024083 0.137,26.024083 0,0 14.76463,-14.998292 14.76463,-14.998292 0,0 -13.75751,-12.56103 -13.75751,-12.56103 z m -2.972907,145.11882 c 0,0 0.191322,-27.01428 0.191322,-27.01428 0,0 -16.189696,16.1296 -16.189696,16.1296 z"
       id="path18"
       inkscape:path-effect="#path-effect18"
       inkscape:original-d="m 100.12077,29.87463 c 0,0 0.137,26.024083 0.137,26.024083 0,0 14.76463,-14.998292 14.76463,-14.998292 0,0 -13.75751,-12.56103 -13.75751,-12.56103 z m -2.972907,145.11882 c 0,0 0.191322,-27.01428 0.191322,-27.01428 0,0 -16.189696,16.1296 -16.189696,16.1296 z" /><path
       style="fill:#0ad3fd;fill-opacity:1;stroke-width:0.488156"
       d="m 379.1324,196.60474 c -0.17689,-7.45048 -0.32206,-29.32082 -0.32258,-48.60076 l -9.4e-4,-35.05443 1.83058,-2.63558 c 1.00682,-1.44957 1.99845,-2.58863 2.20361,-2.53126 0.20516,0.0574 11.89839,10.62137 25.98495,23.47555 l 25.61192,23.37123 -27.39409,27.76078 c -15.06675,15.26843 -27.43858,27.76079 -27.49296,27.76079 -0.0544,0 -0.24359,-6.09585 -0.42049,-13.54632 z"
       id="path2"
       transform="scale(0.26458333)" /><path
       style="fill:#0ad3fd;fill-opacity:1;stroke-width:0.488156"
       d="m 337.07156,640.66443 c -16.10914,-10.9936 -29.34443,-20.15047 -29.41176,-20.3486 -0.0673,-0.19813 13.4121,-13.86944 29.95428,-30.3807 l 30.07669,-30.02046 -0.29843,34.1709 c -0.16414,18.794 -0.29861,41.47493 -0.29882,50.40208 -2.1e-4,8.92715 -0.16513,16.21632 -0.3665,16.19816 -0.20136,-0.0182 -13.54632,-9.02778 -29.65546,-20.02138 z"
       id="path3"
       transform="scale(0.26458333)" /></g></svg>
