<?xml version="1.0" encoding="utf-8"?>
<!-- Generator: Adobe Illustrator 19.1.0, SVG Export Plug-In . SVG Version: 6.00 Build 0)  -->
<svg version="1.1" id="Layer_2" xmlns="http://www.w3.org/2000/svg" xmlns:xlink="http://www.w3.org/1999/xlink" x="0px" y="0px"
	 viewBox="0 0 396 396" style="enable-background:new 0 0 396 396;" xml:space="preserve">
<style type="text/css">
	.st0{fill:#FFFF00;stroke:#000000;stroke-width:6.7132;stroke-miterlimit:10;}
	.st1{opacity:0.35;fill:none;stroke:#26120B;stroke-width:3.0187;stroke-linecap:round;stroke-miterlimit:10;}
	.st2{fill:#FFFFFF;}
	.st3{fill:#80C41C;}
	.st4{fill:#FFFF00;stroke:#000000;stroke-width:1.5093;stroke-miterlimit:10;}
	.st5{fill:none;stroke:#000000;stroke-width:6.7132;stroke-miterlimit:10;}
</style>
<g>
	<g>
		<circle cx="198.4" cy="232.9" r="128.5"/>
		<circle class="st0" cx="198.4" cy="232.9" r="117.9"/>
		<path class="st1" d="M144.6,328.5c-33.3-18.8-55.8-54.6-55.8-95.6c0-60.6,49.1-109.7,109.7-109.7s109.7,49.1,109.7,109.7
			c0,1.5,0,2.9-0.1,4.4"/>
		<g>
			<g id="XMLID_4_">
				<g>
					<path d="M93.4,276.7c3.4-1.7,6.7-2.8,10.3-3.5c-2.5-2.1-4.8-3.9-8.1-3.2C94.9,272.1,94.2,274.2,93.4,276.7z M116.5,287.4
						c4,3.3,8.5,4.2,13.7,3.5c-0.3-0.8-0.5-1.5-0.8-2.3C124.8,290,120.6,289.8,116.5,287.4z M116.5,271.1c0.8-3.2,1.5-6.2,2.2-9.4
						c-3.1,0.6-6,1.2-8.9,1.8C112,266.1,114.2,268.5,116.5,271.1z M227.4,116c0-0.1,0.1-0.1,0.1-0.2c-0.8-1-1.5-2-2.3-2.9
						c-1.5,0.5-2.9,0.9-4.3,1.3c0,0.1,0,0.1,0,0.2c1.1,0.3,2.2,0.6,3.3,0.8C225.2,115.5,226.3,115.7,227.4,116z M146.3,89.3
						c3.8,0.2,7.3,1.4,10.6,3.4c0.8,0.5,1.6,0.6,2.5,0.4c6.6-1.5,11.9-7.8,12.2-14.6c0.4-8.3-6.1-16.2-16.4-16.5
						c-0.8,0.2-2.3,0.3-3.7,0.7c-11,3.3-15,16.8-7.4,25.3C144.7,88.9,145.3,89.3,146.3,89.3z M230.9,108.6c0.3,0.6,0.6,0.5,1.2,0.5
						c-1.1-2.4-2.2-4.7-3.9-6.8c-0.1,0.2-0.1,0.3-0.1,0.3C229,104.7,230,106.6,230.9,108.6z M234.1,155.2c-0.2,4.5-0.1,8.8-0.1,13.2
						c0.3,0,0.6,0,0.8,0c3.3-0.5,6.7-0.9,10-1.5c3.8-0.6,7.5-1.5,10.9-3.3c3.2-1.6,6-3.8,8.1-6.7c0.2-0.2,0.3-0.5,0.4-0.8
						c-0.9,0-1.6,0-2.3,0c-3.7,0-7.3,0.2-11,0c-5-0.2-10-0.6-15-0.8C235.3,155.1,234.8,155.2,234.1,155.2z M109.2,149.8
						c0.1,0.4,0.2,0.7,0.3,1.1c1,3.7,1.8,7.4,3.2,11c2.3,5.7,6,10.2,11.4,13.3c2.9,1.7,6.1,2.6,9.3,3.4c6.8,1.6,13.7,2.1,20.7,2.1
						c4.3,0,8.7-0.2,13-0.7c4.7-0.5,9.4-1.1,14.1-1.9c6-1,11.8-2.7,17.7-4.3c4.1-1.1,8.2-2.2,12.4-3c0.9-0.2,1.8-0.4,2.8-0.5
						c4.8-0.8,9.7-1,14.5-1.4c1.7-0.1,3.3-0.3,5.3-0.5c-1.8-1.7-3.4-3.2-5-4.6c-2.5-2.2-4.5-4.8-5.8-7.8c-0.2-0.5-0.5-1-0.7-1.4
						c-0.2-0.1-0.2-0.1-0.3-0.1c-3.2-0.1-6.3-0.2-9.4-0.4c-0.7,0-1,0.3-1.1,0.9c-0.1,0.6-0.2,1.3-0.3,1.9c-0.1,2.9-0.2,5.8-0.3,8.7
						c0,0.6,0,1.2-0.1,1.8c-0.1,0-0.2,0.1-0.3,0.1c-2.2-2.1-4.5-4.1-6.6-6.2c-1.8-1.8-3-4-4-6.3c-0.2-0.5-0.4-0.9-1.1-0.9
						c-3.3,0.2-6.6,0.4-9.8,0.5c-0.6,0-0.8,0.3-1,0.8c-0.4,1.6-0.6,3.2-0.3,4.8c0.3,1.4,0.5,2.8,0.8,4.1c0.2,1.3,0.4,2.5,0.7,3.8
						c-0.2-0.1-0.4-0.1-0.5-0.1c-1-0.6-1.9-1.2-2.9-1.9c-0.9-0.7-1.9-1.2-2.8-1.8c-2.5-1.7-4.2-4-5.5-6.6c-0.3-0.7-0.7-1.4-1.1-2.1
						c-5.7,0.2-11.3,0-17-0.9c-1.6,4.3-2,8.8-3.4,13.3c-1.8-2.4-3.5-4.5-5.1-6.7c-1.9-2.6-2.9-5.6-3.5-8.7c-0.1-0.5-0.2-0.8-0.7-1
						c-2.2-0.8-4.4-1.8-6.7-2.7c-1.2,1-2,2.4-2.6,3.9c-1.2,2.9-2.4,5.8-3.5,8.6c-0.1,0.2-0.3,0.5-0.5,0.8c-0.9-2.1-1.7-4-2.5-5.9
						c-2.2-4.8-3.2-9.9-2.7-15.2c0-0.6-0.1-1-0.5-1.4c-1-1.2-2-2.4-3-3.7c-0.2-0.3-0.5-0.6-0.7-1c-3.7,1.3-6.8,3.8-10.3,5.4
						c-0.4-1-1.2-4.7-1.1-5.5c0-0.4,0.1-0.8,0.2-1.1c1.1-4.4,3-8.5,6-12c0.4-0.4,0.5-0.8,0.4-1.4c-0.1-1.1-0.1-2.3-0.2-3.4
						c0-0.2-0.1-0.3-0.2-0.6c-2.2,1.8-4.2,3.4-6.5,5.3c0.3-2.8,0.6-5.3,0.9-7.8c0.3-2.6,0.8-5.1,1.9-7.4c1.7-3.3,3.9-6,7.7-7
						c0.4-0.1,0.7-0.4,1.1-0.6c2.2-1.7,4.3-3.5,6.4-5.2c0.9-0.7,1.9-1.4,2.9-2.1c-1.9-3.2-3.2-6.6-3.7-10.3
						c-0.5-3.7-0.1-7.3,0.9-10.9c-0.5,0.1-0.7,0.2-1,0.3c-6.5,2.1-11.4,6.2-14.9,12.1c-2.2,3.8-3.8,8-5,12.2
						c-2.3,7.9-3.2,15.9-3.5,24.1c-0.3,7.5-0.6,15-1,22.5c0,0.7,0.1,1.2,0.6,1.7C107.8,145,108.8,147.2,109.2,149.8z M142.9,197.1
						c-0.2-1.8-0.4-3.4-0.6-5.1c-0.7-0.1-1.4-0.2-2-0.3c-4.8-0.8-9.5-1.8-14.1-3.6c-9-3.4-15.8-9.2-20-18c-0.1-0.2-0.2-0.3-0.3-0.5
						c-0.1,0.4-0.1,0.8,0,1.1c0.7,2.5,1.3,5,2.1,7.5c2.2,6.7,5,13.1,8.1,19.5c5.4,11.2,9.6,22.9,12.3,35.1c0.5,2.2,1,4.3,1.5,6.5
						c0.3,0,0.6-0.1,0.9-0.1c1.4-0.1,2.9-0.3,4.3-0.3c3.4,0.2,6.4,1.4,9.2,3.2c3,2,5.5,4.5,7.8,7.2c2,2.3,4,4.6,5.9,7
						c1.4,1.8,3.2,2.1,5.3,1.5c1.6-0.5,3.1-1.3,4.4-2.3c3-2.5,6.1-5,9.1-7.5c1.7-1.4,3.4-2.9,5.2-4.2c4.4-3,9.3-4.3,14.5-3.3
						c2.2,0.4,4.4,1.3,6.5,2c0.3,0.1,0.6,0.2,0.9,0.3c0,0,0.1,0.1,0.1,0.3c-1.5,1.1-3.1,2.2-4.6,3.4c-1.1,0.8-2.2,1.2-3.6,1.1
						c-0.8,0-1.7,0-2.5,0.2c-3,0.5-5.4,2-7.6,4c-3,2.9-6,5.9-9,8.9c-2.6,2.5-5.3,4.6-8.6,6.1c-4.5,2-8.9,2.3-13.4,0.2
						c-0.2-0.1-0.3-0.1-0.5-0.1c1.8,1.5,3.8,2.3,6,2.8c3.6,0.7,7.2,0.4,10.6-0.7c4.2-1.3,8.3-2.9,12.5-4.5c2.2-0.8,4.5-1.3,6.9-1.3
						c1.4,0,2.8,0,4.2,0c3.4-0.2,6.2-1.4,8.4-4c1.4-1.7,3-3.4,4.6-5c0.2-0.2,0.4-0.4,0.8-0.7c0.3,2.4,0.6,4.6,0.9,6.9
						c0.2,1.3-0.1,2.4-0.8,3.5c-1.8,2.9-4.4,5.1-7.5,6.5c-2.9,1.3-6,1.9-9.2,2c-1.8,0.1-3.4,0.4-4.9,1.2c-0.7,0.4-1.4,0.7-2.2,1
						c-4.1,1.9-8.3,3.7-12.8,4.8c-4.7,1.1-9.4,1.4-14.2,0.2c-5.4-1.3-9.9-4.2-13.6-8.3c-2-2.2-3.8-4.6-5.7-6.9
						c-0.5-0.6-1-1.1-1.5-1.7c-0.6,0.4-1.2,0.8-1.7,1.1c1.5,6.3,2.9,12.6,4.5,18.7c1.9,7.6,4.5,15,8.2,22
						c6.6,12.5,14.9,23.6,25.3,33.2c1.2,1.1,2.5,2.2,3.7,3.3c1.7-1.3,3.2-2.6,4.9-3.8c0.3,0.2,0.6,0.4,0.8,0.6
						c1.1,0.9,2.1,1.8,3.2,2.8c2.9,2.6,6,5,9.3,7c-12.1-0.4-23.7-2.6-34.6-6.4c0.1-0.3,0.3-0.7,0.4-1
						c-11.3-11.4-20.4-24.4-26.9-39.2c-1.1,0.2-2.1,0.3-3.2,0.4c-5.6,0.7-10.9-0.2-16-2.8c-3.1-1.6-5.8-3.8-8-6.5
						c-1.7-2.1-3.3-4.3-5-6.5c-0.7-0.9-1.5-1.8-2.4-2.8c-1.1,0.7-2.2,1.4-3.3,2.1c-3.8-7.4-6.7-15.2-8.8-23.5
						c1.2-0.6,2.5-1.1,3.8-1.6c2.8-1,5.6-1.4,8.5-0.9c1.8,0.3,3.5,0.8,5.4,1.3c4.1-5.6,8.6-11.2,14.3-15.5c0-0.3-0.1-0.5-0.1-0.7
						c-0.7-3.2-1.4-6.5-2.2-9.7c-2.1-8.9-4.8-17.7-8.6-26c-2.4-5.2-4.6-10.4-6.9-15.7c-3.4-8.1-6.3-16.3-7.4-25.1
						c-0.5-4-0.8-8.1-0.5-12.1c0.2-3.1,0.5-6.1,0.6-9.2c0.4-7.7,0.7-15.5,1-23.2c0.3-8,1.2-15.9,2.9-23.7c1.5-6.9,3.5-13.5,7-19.7
						c4.3-7.8,10.3-13.7,18.5-17.2c4.2-1.8,8.6-2.8,13.2-3.4c0.6-0.1,1.1-0.3,1.6-0.7c3.6-3.3,7.9-5.4,12.7-6.3
						c0.9-0.2,1.8-0.3,2.7-0.4c1.6,0,3.2,0,4.9,0c1.2,0.3,2.4,0.5,3.6,0.8c5.8,1.5,10.7,4.5,14.5,9.3c0.4,0.5,0.8,0.8,1.3,0.9
						c1.4,0.3,2.9,0.7,4.3,1.1c0.7,0.2,1.2,0,1.7-0.5c3.5-3.1,7.4-5.4,12.1-6.3c12.6-2.5,24.9,4.4,29.2,16.6c0.5,1.5,1.2,2,2.7,2.3
						c7.5,1.4,15.1,2.8,22.6,4.3c2.5,0.5,5,1.2,7.4,1.8c0.7,0.2,1.4,0.2,2.1,0c3.6-0.9,7.2-1.1,10.9-0.2c6.5,1.6,10.5,5.8,12.2,12.2
						c0.8,3,1,6.1,0.8,9.2c-0.2,4-0.3,8.1-0.4,12.1c-0.1,4.3-0.4,8.7-0.8,13c-0.4,3.8-0.2,7.5,1.1,11.1c1.5,4.3,0.3,7.8-2.9,10.9
						c-1.2,1.1-2.5,2.1-4,2.8c-0.4,0.2-0.7,0.5-0.8,1c-2.7,10.8-9.7,17.7-19.8,21.8c-4.1,1.7-8.3,2.6-12.6,3.5
						c-6.4,1.3-12.8,2.1-19.2,2.6c-7.7,0.6-15.2,2.4-22.6,4.7c-8,2.5-16.2,4.2-24.6,5.3c-1.1,0.1-2.2,0.3-3.2,0.5
						c-0.7,1.5-0.3,3-0.1,4.5c0.6,3.9,2.2,7.3,4.8,10.3c0.7,0.8,1.5,1.6,2.1,2.4c0.8,1,1.9,1.6,3.2,2.1c6.2,2.1,12.5,3.4,19,4.4
						c8.8,1.3,17.5,2.4,26.3,3.9c9.8,1.6,19.3,4,28.7,7c8.7,2.8,17.2,6,25.3,10.1c4.2,2.1,8.5,3.4,13,4.4c5.5,1.3,10.8,2.9,16.1,4.7
						c-0.6,5-1.4,9.9-2.6,14.7c-0.7-0.4-1.4-0.7-2.1-1.1c-11.3-5.7-22.6-11.2-34.3-15.8c-14.8-5.8-30.1-10.1-45.7-12.9
						c-6.8-1.2-13.6-2.2-20.4-3.3c-0.9-0.1-1.8-0.2-2.7-0.3c0,0.1-0.1,0.2-0.1,0.3c0.3,0.3,0.6,0.5,0.9,0.8c1.8,1.7,3.6,3.4,5,5.4
						c0.6,0.9,1.1,1.9,1.2,3c0.3,1.9,0.6,3.9,0.9,5.8c0.2,1.1,0.3,2.3,0.5,3.4c-1.3-0.9-2.5-1.9-3.6-3c-0.8-0.8-1.7-1.6-2.6-2.4
						c-2.7-2.3-5.5-4.4-8.6-6.2c-4.5-2.5-8.8-5.1-13.3-7.7c-4.9-2.9-9.4-6.2-13.3-10.5c-3.9-4.4-6.7-9.4-7.5-15.2
						c-0.3-1.8-0.3-3.7-0.5-5.7c-5.1,1.9-10.4,3.3-16,3.8c-0.2-1-0.3-1.8-0.4-2.6C145.9,196.7,144.4,196.9,142.9,197.1z M144,140.3
						c9.9,4.5,20.3,5.9,31,5.2c5.5-0.4,10.9-1,16.4-1.5c7-0.6,14-0.8,21.1-0.6c6.4,0.2,12.8,0.4,19.1,0.7c7,0.3,14,0.7,21.1,1
						c0.9,0,1.7,0,2.6,0c-7.8-1.2-15.5-2-23.3-3.2c4.5-0.6,9-1.1,13.5-1.6c4.3-0.5,8.6-0.9,13-1.4c2.9-0.4,5.8-0.8,8.7-1.3
						c1.8-0.3,3.5-0.9,5-1.8c0-0.3,0-0.5,0-0.7c-0.3-4.1,0-8.1,0.6-12.1c0.6-4,1-8,0.6-12.1c-0.3-3.3-1-6.5-2.5-9.4
						c-2.2-4.3-5.7-7-10.1-8.8c-4.9-2-10.1-3.1-15.3-4.1c-7.2-1.4-14.5-2.7-21.7-4.1c-1.2-0.2-2.3-0.5-3.5-0.7
						c0.4,0.4,0.9,0.6,1.3,0.8c7.5,3.3,12.7,8.7,15.5,16.4c0.9,2.5,1.5,5,1.1,7.6c-0.3,1.9-0.5,3.9-0.7,5.8
						c-0.2,1.4-0.4,2.9-0.5,4.3c-0.1,0-0.2,0-0.2,0c-1.3-2.7-2.6-5.4-3.9-8.1c-1.5,0.3-1.7,0.3-1.8,0.8c-0.5,1.7-1,3.3-1.4,5.1
						c0.9,0.3,1.8,0.5,2.6,0.7c0,0.1,0,0.1,0,0.2c-3.5,0.8-7,1.6-10.6,2.4c-1.7,0.4-3.4,0.9-5.1,1c-8.6,0.5-16.6-4.4-20.1-12.3
						c-1.6-3.6-2.1-7.3-1.2-11.1c0.9-3.9,2.9-7.3,5.8-10.1c2.7-2.7,6-4.3,9.9-4.6c1.2-0.1,2.3-0.2,3.5-0.2c0-0.1,0-0.1,0-0.2
						c-10.7-2.9-21.4-5.8-32.4-8.8c1,6.2,0,11.9-3,17.3c-2.9,5.3-7.3,9.1-12.9,11.5c0.5,1.9,1,3.7,1.4,5.5c0.4,1.8,1,3.5,1.4,5.6
						c-0.5-0.3-0.7-0.5-0.9-0.7c-1.5-1.3-2.9-2.6-4.5-3.8c-2.6-2.1-5.1-4.3-7.8-6.2c-4.5-3.2-9.6-4.7-15.2-4.3
						c-3.6,0.2-7.2,1-10.7,1.8c0,0-0.1,0.1-0.1,0.2c0.1,0.1,0.1,0.1,0.2,0.2c3.9,2.1,5.9,5.5,6.4,9.9c0.5,3.9,1,7.8,1.4,11.7
						c0.2,1.5,0.3,2.9,0.5,4.4c-0.4-0.3-0.6-0.6-0.8-1c-2.6-4.6-5.2-9.1-7.8-13.6c-0.4-0.7-0.9-1.5-1.3-2.2
						c-0.2-0.2-0.4-0.4-0.6-0.6c-0.8,3.9-1.1,7.7-0.3,11.5c1.1,5.4,3.3,10.1,7.4,13.8C137.5,136.8,140.6,138.8,144,140.3z
						 M212.9,102.4c1.6,2,5.2,4,7.1,4.1C218,104.6,216,102.9,212.9,102.4z M212.1,71.7c-2.8-3.9-10.8-6.2-14.7-4.2
						C202.2,69,207.1,70.3,212.1,71.7z M130.4,256.8c3.4-1.8,6.6-3,10.2-3.9c-2.6-1.9-4.9-3.7-8.2-2.9
						C131.8,252.2,131.1,254.4,130.4,256.8z M126.6,278.7c-0.5-2-0.9-3.9-1.5-6.2c-1.5,1.6-2.7,3-4,4.4
						C122.4,278.8,124.7,279.6,126.6,278.7z"/>
					<path class="st2" d="M220,106.6c-2-0.1-5.5-2.1-7.1-4.1C216,102.9,218,104.6,220,106.6z"/>
					<path class="st2" d="M273.5,243.7c11.7,4.6,23,10.2,34.3,15.8c0.7,0.3,1.4,0.7,2.1,1.1c-7.1,28.8-25.2,53.4-49.5,69
						c-0.6-6.7,0.8-13.2,3.9-19.5c2.7-5.5,6.3-10.4,10.5-14.9c0.6-0.6,1.2-1.3,1.7-1.9c3.5-4.7,7.1-9.4,10.6-14.1
						c0.2-0.2,0.3-0.4,0.3-0.8c-0.3,0.2-0.5,0.3-0.8,0.4c-4.9,3.2-9.9,6.1-14.7,9.5c-11.9,8.4-19.9,19.5-22.5,34
						c-0.8,4.5-0.7,9,0,13.4c-15.4,7.7-32.7,12-51,12c-1.2,0-2.4,0-3.6-0.1c-3.3-2.1-6.4-4.5-9.3-7c-1.1-0.9-2.1-1.9-3.2-2.8
						c-0.3-0.2-0.5-0.4-0.8-0.6c-1.6,1.3-3.2,2.5-4.9,3.8c-1.3-1.1-2.5-2.2-3.7-3.3c-10.4-9.5-18.7-20.7-25.3-33.2
						c-3.7-7-6.2-14.4-8.2-22c-1.6-6.2-3-12.4-4.5-18.7c0.6-0.4,1.1-0.7,1.7-1.1c0.5,0.6,1.1,1.1,1.5,1.7c1.9,2.3,3.7,4.7,5.7,6.9
						c3.7,4.1,8.2,7,13.6,8.3c4.7,1.2,9.5,0.9,14.2-0.2c4.5-1.1,8.6-2.9,12.8-4.8c0.7-0.3,1.5-0.7,2.2-1c1.5-0.8,3.2-1.2,4.9-1.2
						c3.2-0.1,6.2-0.7,9.2-2c3.2-1.4,5.7-3.6,7.5-6.5c0.7-1.1,1-2.2,0.8-3.5c-0.3-2.2-0.6-4.5-0.9-6.9c-0.3,0.3-0.6,0.5-0.8,0.7
						c-1.5,1.7-3.1,3.3-4.6,5c-2.2,2.6-5,3.9-8.4,4c-1.4,0.1-2.8,0.1-4.2,0c-2.4,0-4.6,0.4-6.9,1.3c-4.1,1.5-8.3,3.1-12.5,4.5
						c-3.4,1.1-7,1.4-10.6,0.7c-2.2-0.5-4.2-1.3-6-2.8c0.2,0,0.4,0,0.5,0.1c4.5,2.2,9,1.8,13.4-0.2c3.3-1.4,6.1-3.6,8.6-6.1
						c3-3,6-5.9,9-8.9c2.1-2,4.6-3.5,7.6-4c0.8-0.2,1.7-0.2,2.5-0.2c1.3,0,2.5-0.3,3.6-1.1c1.5-1.2,3-2.3,4.6-3.4
						c0-0.1-0.1-0.3-0.1-0.3c-0.3-0.1-0.6-0.2-0.9-0.3l4-2c0.9,0.8,1.8,1.6,2.6,2.4c1.1,1.1,2.2,2.1,3.6,3c-0.2-1.1-0.3-2.3-0.5-3.4
						c-0.3-1.9-0.6-3.8-0.9-5.8c-0.2-1.1-0.6-2.1-1.2-3c-1.4-2-3.2-3.8-5-5.4c-0.3-0.3-0.6-0.6-0.9-0.8c0-0.1,0.1-0.2,0.1-0.3
						c0.9,0.1,1.8,0.2,2.7,0.3c6.8,1.1,13.6,2.1,20.4,3.3C243.4,233.6,258.7,237.9,273.5,243.7z"/>
					<path class="st2" d="M227.4,116c-1.1-0.3-2.2-0.5-3.3-0.8c-1.1-0.3-2.2-0.5-3.3-0.8c0-0.1,0-0.1,0-0.2c1.4-0.4,2.8-0.9,4.3-1.3
						c0.8,1,1.5,1.9,2.3,2.9C227.4,115.9,227.4,115.9,227.4,116z"/>
					<path class="st2" d="M273.3,111c0.3,4.1,0,8.1-0.6,12.1c-0.6,4-0.9,8-0.6,12.1c0,0.2,0,0.4,0,0.7c-1.5,0.9-3.2,1.5-5,1.8
						c-2.9,0.5-5.8,0.9-8.7,1.3c-4.3,0.5-8.6,1-13,1.4c-4.5,0.5-9,1-13.5,1.6c7.7,1.1,15.5,2,23.3,3.2c-0.9,0-1.7,0-2.6,0
						c-7-0.3-14-0.7-21.1-1c-6.4-0.3-12.8-0.5-19.1-0.7c-7-0.2-14.1,0-21.1,0.6c-5.5,0.5-10.9,1.1-16.4,1.5
						c-10.7,0.7-21.2-0.7-31-5.2c-3.4-1.5-6.5-3.5-9.3-6c-4.1-3.7-6.3-8.5-7.4-13.8c-0.8-3.8-0.5-7.6,0.3-11.5
						c0.3,0.3,0.5,0.4,0.6,0.6c0.5,0.7,0.9,1.4,1.3,2.2c2.6,4.5,5.2,9.1,7.8,13.6c0.2,0.3,0.4,0.7,0.8,1c-0.2-1.5-0.3-2.9-0.5-4.4
						c-0.5-3.9-1-7.8-1.4-11.7c-0.5-4.3-2.5-7.7-6.4-9.9c-0.1,0-0.1-0.1-0.2-0.2c0-0.1,0.1-0.2,0.1-0.2c3.5-0.8,7.1-1.5,10.7-1.8
						c5.6-0.4,10.6,1.2,15.2,4.3c2.7,1.9,5.2,4.1,7.8,6.2c1.5,1.2,3,2.6,4.5,3.8c0.2,0.2,0.4,0.3,0.9,0.7c-0.3-2.1-1-3.8-1.4-5.6
						c-0.4-1.8-1-3.6-1.4-5.5c5.6-2.4,10-6.2,12.9-11.5c2.9-5.3,4-11,3-17.3c10.9,3,21.6,5.9,32.4,8.8c0,0,0,0.1,0,0.2
						c-1.1,0.1-2.3,0.1-3.5,0.2c-3.8,0.4-7.1,2-9.9,4.6c-2.8,2.8-4.9,6.1-5.8,10.1c-0.9,3.8-0.4,7.5,1.2,11.1
						c3.5,7.9,11.5,12.8,20.1,12.3c1.7-0.1,3.4-0.6,5.1-1c3.5-0.8,7-1.6,10.6-2.4c0-0.1,0-0.1,0-0.2c-0.8-0.2-1.6-0.5-2.6-0.7
						c0.5-1.7,0.9-3.4,1.4-5.1c0.2-0.5,0.3-0.5,1.8-0.8c1.3,2.7,2.6,5.4,3.9,8.1c0.1,0,0.2,0,0.2,0c0.2-1.4,0.4-2.9,0.5-4.3
						c0.2-1.9,0.4-3.9,0.7-5.8c0.4-2.7-0.2-5.2-1.1-7.6c-2.8-7.7-8-13.2-15.5-16.4c-0.5-0.2-0.9-0.4-1.3-0.8
						c1.1,0.2,2.3,0.5,3.5,0.7c7.2,1.4,14.5,2.7,21.7,4.1c5.2,1,10.4,2.1,15.3,4.1c4.3,1.8,7.9,4.5,10.1,8.8
						C272.4,104.5,273.1,107.7,273.3,111z"/>
					<path class="st2" d="M127.9,139.8c0.4,0.4,0.5,0.8,0.5,1.4c-0.4,5.3,0.5,10.3,2.7,15.2c0.9,1.9,1.6,3.8,2.5,5.9
						c0.2-0.4,0.4-0.6,0.5-0.8c1.2-2.9,2.4-5.8,3.5-8.6c0.6-1.5,1.4-2.9,2.6-3.9c2.3,0.9,4.5,1.8,6.7,2.7c0.5,0.2,0.6,0.5,0.7,1
						c0.6,3.1,1.6,6.1,3.5,8.7c1.6,2.2,3.3,4.3,5.1,6.7c1.4-4.5,1.8-9,3.4-13.3c5.7,0.9,11.3,1,17,0.9c0.4,0.7,0.7,1.4,1.1,2.1
						c1.3,2.6,3,4.9,5.5,6.6c0.9,0.6,1.9,1.1,2.8,1.8c0.9,0.7,1.9,1.3,2.9,1.9c0.1,0.1,0.2,0.1,0.5,0.1c-0.2-1.3-0.5-2.6-0.7-3.8
						c-0.2-1.4-0.5-2.8-0.8-4.1c-0.3-1.6-0.1-3.2,0.3-4.8c0.1-0.5,0.4-0.8,1-0.8c3.3-0.2,6.6-0.3,9.8-0.5c0.7,0,0.8,0.4,1.1,0.9
						c1,2.3,2.2,4.5,4,6.3c2.1,2.1,4.4,4.1,6.6,6.2l0.7,3.5c-4.2,0.8-8.3,1.9-12.4,3c-5.9,1.6-11.7,3.4-17.7,4.3
						c-4.7,0.8-9.3,1.4-14.1,1.9c-4.3,0.4-8.7,0.6-13,0.7c-6.9,0-13.9-0.5-20.7-2.1c-3.2-0.8-6.4-1.8-9.3-3.4
						c-5.4-3.1-9.1-7.6-11.4-13.3c-1.4-3.6-2.3-7.3-3.2-11c-0.1-0.4-0.2-0.7-0.3-1.1c-0.4-2.6-1.4-4.8-3.4-6.5
						c-0.5-0.5-0.6-1-0.6-1.7c0.3-7.5,0.6-15,1-22.5c0.3-8.1,1.2-16.2,3.5-24.1c1.2-4.3,2.8-8.4,5-12.2c3.5-5.9,8.4-10,14.9-12.1
						c0.2-0.1,0.5-0.1,1-0.3c-1,3.7-1.4,7.3-0.9,10.9c0.5,3.7,1.8,7.1,3.7,10.3c-1,0.7-2,1.4-2.9,2.1c-2.2,1.7-4.3,3.5-6.4,5.2
						c-0.3,0.3-0.7,0.5-1.1,0.6c-3.8,1-6,3.7-7.7,7c-1.2,2.3-1.7,4.8-1.9,7.4c-0.3,2.5-0.5,5-0.9,7.8c2.3-1.8,4.3-3.5,6.5-5.3
						c0.1,0.3,0.2,0.4,0.2,0.6c0.1,1.1,0.1,2.3,0.2,3.4c0,0.6-0.1,1-0.4,1.4c-3,3.5-4.9,7.5-6,12c-0.1,0.4-0.2,0.8-0.2,1.1
						c0,0.8,0.7,4.5,1.1,5.5c3.5-1.6,6.6-4.1,10.3-5.4c0.3,0.4,0.5,0.7,0.7,1C125.9,137.3,126.8,138.6,127.9,139.8z"/>
					<path class="st2" d="M106.3,170.1c4.1,8.8,11,14.6,20,18c4.5,1.8,9.3,2.8,14.1,3.6c0.6,0.1,1.3,0.2,2,0.3
						c0.2,1.6,0.4,3.3,0.6,5.1c1.5-0.2,3-0.4,4.5-0.6c0.1,0.9,0.3,1.7,0.4,2.6c5.5-0.5,10.8-1.9,16-3.8c0.2,2,0.2,3.8,0.5,5.7
						c0.9,5.9,3.6,10.9,7.5,15.2c3.8,4.3,8.3,7.6,13.3,10.5c4.4,2.6,8.8,5.2,13.3,7.7c3.1,1.7,6,3.8,8.6,6.2l-4,2
						c-2.1-0.7-4.3-1.6-6.5-2c-5.3-1-10.2,0.3-14.5,3.3c-1.8,1.2-3.5,2.7-5.2,4.2c-3,2.5-6,5-9.1,7.5c-1.3,1-2.7,1.8-4.4,2.3
						c-2.1,0.6-3.8,0.3-5.3-1.5c-1.9-2.4-3.9-4.7-5.9-7c-2.3-2.7-4.8-5.2-7.8-7.2c-2.8-1.8-5.8-3-9.2-3.2c-1.4-0.1-2.9,0.2-4.3,0.3
						c-0.3,0-0.6,0.1-0.9,0.1c-0.5-2.2-1-4.4-1.5-6.5c-2.7-12.2-6.9-23.8-12.3-35.1c-3.1-6.3-5.9-12.8-8.1-19.5
						c-0.8-2.5-1.4-5-2.1-7.5c-0.1-0.3-0.1-0.7,0-1.1C106.1,169.7,106.3,169.9,106.3,170.1z"/>
					<path class="st2" d="M132.4,250.1c3.3-0.8,5.6,1,8.2,2.9c-3.6,0.9-6.9,2.1-10.2,3.9C131.1,254.4,131.8,252.2,132.4,250.1z"/>
					<path class="st2" d="M156.9,92.8c-3.2-2-6.7-3.2-10.6-3.4c-1,0-1.6-0.5-2.3-1.2c-7.5-8.5-3.6-22.1,7.4-25.3
						c1.4-0.4,2.8-0.5,3.7-0.7c10.2,0.2,16.8,8.2,16.4,16.5c-0.3,6.8-5.5,13.1-12.2,14.6C158.5,93.4,157.7,93.3,156.9,92.8z"/>
					<path class="st2" d="M261.9,156c0.7,0,1.4,0,2.3,0c-0.2,0.3-0.3,0.6-0.4,0.8c-2.1,2.9-4.9,5.1-8.1,6.7
						c-3.4,1.8-7.2,2.7-10.9,3.3c-3.3,0.5-6.7,1-10,1.5c-0.2,0-0.4,0-0.8,0c0-4.4-0.1-8.7,0.1-13.2c0.7,0,1.2,0,1.8,0
						c5,0.3,10,0.6,15,0.8C254.5,156.1,258.2,156,261.9,156z"/>
					<path class="st2" d="M197.3,67.6c4-2,11.9,0.2,14.7,4.2C207.1,70.3,202.2,69,197.3,67.6z"/>
					<path class="st2" d="M230.9,108.6c-0.9-2-1.8-4-2.8-6c0,0,0-0.1,0.1-0.3c1.7,2.1,2.8,4.3,3.9,6.8
						C231.5,109.1,231.1,109.2,230.9,108.6z"/>
					<path class="st2" d="M95.7,270c3.3-0.7,5.6,1.1,8.1,3.2c-3.6,0.7-6.9,1.8-10.3,3.5C94.2,274.2,94.9,272.1,95.7,270z"/>
					<path d="M71.5,277c3.6-7,8.8-12.3,15.6-15.6c2.1,8.2,5.1,16.1,8.8,23.5c-0.2,0.1-0.3,0.2-0.4,0.3c-3.1,2.2-6.1,4.4-9.1,6.5
						c-2.3,1.6-4.6,3-7,4.5c-0.2,0.2-0.5,0.3-0.9,0.5c0.8-5.4,1.4-10.8,2.9-16.1c-4.2,0.3-8.3,0.6-12.3,0.8c0-0.1,0-0.2,0-0.2
						c0.2-0.2,0.5-0.4,0.7-0.6C70.3,279.4,70.9,278.2,71.5,277z"/>
					<path class="st2" d="M214.1,170.3c-0.9,0.2-1.9,0.3-2.8,0.5l-0.7-3.5c0.1,0,0.2-0.1,0.3-0.1c0-0.6,0.1-1.2,0.1-1.8
						c0.1-2.9,0.2-5.8,0.3-8.7c0-0.6,0.2-1.3,0.3-1.9c0.1-0.6,0.4-0.9,1.1-0.9c3.2,0.2,6.3,0.3,9.4,0.4c0.1,0,0.2,0,0.3,0.1
						c0.2,0.4,0.5,0.9,0.7,1.4c1.3,3,3.3,5.6,5.8,7.8c1.6,1.4,3.2,2.9,5,4.6c-1.9,0.2-3.6,0.4-5.3,0.5
						C223.7,169.3,218.9,169.6,214.1,170.3z"/>
					<path d="M286.6,278.9c0.3-0.2,0.5-0.3,0.8-0.4c0,0.3-0.2,0.6-0.3,0.8c-3.5,4.7-7,9.4-10.6,14.1c-0.5,0.7-1.1,1.3-1.7,1.9
						c-4.2,4.5-7.8,9.3-10.5,14.9c-3.1,6.4-4.5,12.9-3.9,19.5c-3.5,2.3-7.2,4.3-10.9,6.2c-0.7-4.4-0.8-8.9,0-13.4
						c2.6-14.6,10.6-25.6,22.5-34C276.6,285,281.7,282,286.6,278.9z"/>
					<path class="st2" d="M116.5,287.4c4.1,2.4,8.4,2.6,12.9,1.2c0.3,0.8,0.5,1.5,0.8,2.3C125,291.6,120.4,290.7,116.5,287.4z"/>
				</g>
				<g>
				</g>
			</g>
		</g>
		<g>
			<path class="st2" d="M184.3,68.9c0,0,5.7-7.5,16.7-7.3s15.2,5.8,16.7,8.6s2.9,9.2,2.9,9.2S193.3,77.2,184.3,68.9z"/>
			<path class="st3" d="M167.4,339.5l9.4,8.1c0,0,19.2,7.4,51-0.6c31.8-8,57.4-30.8,68.3-47.5c10.8-16.7,18.6-47.4,18.6-47.4
				s-13.4-4.6-21.5-6.7c-8.1-2.1-28.8-11.7-48.8-16.1c-20-4.4-54.2-9.6-61.8-12.9c-7.5-3.3-19.6-14.6-11.9-29.4
				c0,0,18.2-3.1,28.6-6.9s32.1-4.4,38.4-5.6c6.3-1.3,21.3-3.2,27.4-11.9c6.2-8.7,6.2-13.5,6.2-13.5s7.3-4.4,7.6-7s-2.2-9.6-1.1-19
				c1-9.4,0.9-25.3-0.8-31.7c-1.8-6.4-11.8-5.7-14.8-5.4c-3,0.3-15.2-2.4-20.2-3.1s-61.3-15-61.3-15l-5.7-1.1c0,0-24.5-5.9-42.3-2.4
				C114.7,67.8,108.1,80,104,93.3c-4.1,13.3-4.7,36.6-5,48.5c-0.3,11.9-1.7,25.2,3.1,38.7s12.8,25.2,17.5,41
				c4.7,15.8,4.4,25.5,4.4,25.5s-7.4,6.4-8.3,8c-0.9,1.6,9.4-0.2,9.4-0.2l-3.1,12.5l6.6-3.9l3.4,18.5c0,0-7,4.1-12,1.4
				s-12-14.2-17.1-17.7c-5-3.4-14.9-1.2-24.7,8.6h9.6l-4,13.4c0,0,6.2-4.9,9.6-6.7c3.4-1.8,5.8-3.4,8-1.7
				c2.3,1.7,7.4,10.8,16.9,15.6c9.5,4.8,17.8,0.4,17.8,0.4S148.1,322.9,167.4,339.5z"/>
			<path class="st2" d="M176,77.3c0,11.4-9.2,20.6-20.6,20.6c-1,0-2.8-2.4-5.3-3.2c-2.8-0.9-6.3-0.3-7.3-1.1
				c-4.8-3.8-7.9-9.6-7.9-16.2c0-11.4,9.2-20.6,20.6-20.6C166.8,56.7,176,65.9,176,77.3z"/>
			<g id="XMLID_3_">
				<g>
					<path class="st2" d="M183.6,151.2c-0.5,1.8-0.9,3.4-1.4,5.2c-1.1-1.7-1.8-3.2-2.3-4.9C181.2,151.5,182.4,151.3,183.6,151.2z"/>
					<path class="st2" d="M133.4,147.8c-0.6-2.4-0.6-4.8-0.3-7.4c1.5,1.1,2.9,2,4.3,2.9C136.1,144.8,134.8,146.2,133.4,147.8z"/>
					<path d="M90.8,272.2c0,0.2-0.1,0.3-0.2,0.4c0-0.1-0.1-0.3-0.2-0.4C90.6,272.2,90.7,272.2,90.8,272.2z"/>
					<path class="st2" d="M228.4,156.1c-1.1-1.6-1.8-3.2-2.4-5c1.2-0.2,2.4,0,3.6,0.2C229.3,152.8,228.9,154.3,228.4,156.1z"/>
					<path d="M184.8,346.9c-1.6-1.6-3.1-3.2-4.5-5c0.3-0.2,0.5-0.4,0.7-0.6c0.4,0.4,0.8,0.7,1.2,1c1.9,1.8,3.9,3.4,6,4.9
						C187.1,347.2,185.9,347.1,184.8,346.9z"/>
					<path d="M214,107.8c2.1,1.2,4.3,2,6.7,2.5c-0.3,0.1-0.6,0.2-0.9,0.2c-5.6,0.2-10.1-1.8-13.6-6.2c-0.8-1-1.3-2.1-1.3-3.4
						c-0.1-1.6,0.6-2.9,1.9-3.8c1.9-1.2,4-1.5,6.1-1.3c2.9,0.2,5.3,1.4,7.5,3.3c3.3,2.8,5.4,6.4,6.9,10.4c0,0.1,0.1,0.3,0.1,0.4
						c0,0.1,0,0.2-0.1,0.4c-1.1-1.4-2-2.6-3-3.8c-1.9-2.3-4-4.5-6.7-6.1c-2.3-1.3-4.8-2-7.5-1.4c-2.4,0.5-2.9,1.7-1.6,3.7
						C209.9,105,211.8,106.5,214,107.8z"/>
					<path d="M271,293.6c-5.2,5.6-9.4,11.9-12.1,19.1c-2.3,6.2-3.1,12.6-2.1,19.1c-1.5,0.9-3,1.7-4.5,2.5
						c-0.7-5.2-0.5-10.3,0.9-15.5c3.1-11.7,10.2-20.5,19.7-27.6c0.2-0.2,0.4-0.3,0.6-0.4C272.7,291.8,271.9,292.7,271,293.6z"/>
					<path class="st2" d="M205.7,155.5c-1.2-1.6-1.9-3.4-2.5-5.2c1.4,0,2.6,0,3.8,0C206.6,152,206.2,153.7,205.7,155.5z"/>
					<path d="M217.2,86.4c9.1,3,15,9.1,17.3,18.5c0.2,0.6,0.2,1.3,0.1,2.1c-0.2-0.3-0.3-0.7-0.5-1c-2.2-4.9-5.5-9-10-12
						c-2.7-1.8-5.6-3.1-8.8-3.7c-5.6-1-9.7,1.9-11.9,6.1c-2.2,4.2-1.7,8.3,0.8,12.2c2.5,3.9,6.2,6.3,10.6,7.5c1,0.3,1.9,0.5,2.9,0.7
						c-1.9,0.4-3.7,0.4-5.5,0c-5.6-1.2-10-4.1-12.6-9.3c-2.9-5.8-2.1-11.4,1.9-16.5c2.2-2.8,5-4.7,8.6-5.3
						C212.4,85.5,214.8,85.6,217.2,86.4z"/>
					<path class="st2" d="M123,124.6c0.6,1.7,1.1,3.3,1.7,4.9c-1.9,0.5-3.7,1-5.6,1.4C119.2,129.8,121.3,126.1,123,124.6z"/>
					<path d="M124.7,129.5c-0.6-1.6-1.1-3.2-1.7-4.9c-1.7,1.5-3.8,5.1-3.9,6.3C121,130.4,122.8,130,124.7,129.5z M203.2,150.3
						c0.6,1.9,1.3,3.6,2.5,5.2c0.5-1.8,0.9-3.5,1.4-5.2C205.8,150.3,204.6,150.3,203.2,150.3z M133.1,140.4c-0.2,2.6-0.2,5,0.3,7.4
						c1.4-1.6,2.7-3,4-4.5C136.1,142.4,134.7,141.4,133.1,140.4z M151.7,149.3c0.3,2.2,0.7,4.2,1.6,6c0.8-1.8,1.6-3.4,2.4-5.1
						C154.4,150,153.1,149.7,151.7,149.3z M263.9,87.4c5.9,2.8,10.2,6.9,13,12.5c0.1-0.3,0.2-0.5,0.1-0.6c-0.1-1-0.2-2-0.3-2.9
						c-0.8-5-3.6-8-8.2-8.9C267.1,87.2,265.6,87,263.9,87.4z M182.3,156.5c0.5-1.8,0.9-3.5,1.4-5.2c-1.3,0.1-2.4,0.2-3.7,0.3
						C180.5,153.3,181.2,154.8,182.3,156.5z M142.7,91.9c0.4,0.4,0.8,0.5,1.4,0.5c4.3,0,8.2,1.3,11.7,3.8c0.6,0.4,1.1,0.5,1.8,0.4
						c9.7-1.1,16.6-9.4,16.9-18.4c0.3-10.1-7.8-19.5-19.4-19.6c-0.7,0-1.6,0.1-2.5,0.2c-10.8,1.7-17.6,11.7-16,21.8
						C137.3,85,139.4,88.8,142.7,91.9z M218.4,76.7c-1.4-5.6-6.3-11.6-13.9-13.1c-6.2-1.2-11.6,0.4-16.4,4.8
						C198.3,71.1,208.2,74.2,218.4,76.7z M226.1,151.1c0.5,1.8,1.3,3.4,2.4,5c0.5-1.8,0.8-3.3,1.2-4.9
						C228.4,151.1,227.3,150.9,226.1,151.1z M178.2,151.7c-6.9,0.4-13.9,0.2-20.8-1.1c-1,1.4-1.8,2.9-2.2,4.4
						c-0.5,1.6-0.7,3.2-1.1,4.9c-2.6-3.3-3.6-7.1-4-11.1c-3.3-1-6.4-2.2-9.3-3.7c-1-0.6-1.8-0.5-2.6,0.3c-0.7,0.7-1.4,1.4-2,2.1
						c-1,1.3-1.8,2.8-2.3,4.4c-0.2,0.4-0.4,0.9-0.6,1.5c-1.7-4-2.4-9.2-1.8-13.4c0.1-0.7,0-1.3-0.6-1.8c-0.9-0.9-1.7-1.8-2.5-2.7
						c-0.9-1.2-1.8-2.5-2.7-3.8c-1.8-0.3-3.6,0.1-5.3,1c-1.6,0.8-3.1,1.8-4.7,2.7c0-0.1-0.1-0.2,0-0.2c1.1-4.5,3-8.5,6.2-11.9
						c0.6-0.6,0.7-1.2,0.6-2c-0.5-3.8-0.3-7.6,0.6-11.3c0.1-0.2,0.2-0.5,0.4-0.7c0.1,0,0.2,0.1,0.2,0.1c0,0.3-0.1,0.7-0.1,1.1
						c-0.6,3.5-0.6,7,0,10.5c1.3,6.9,4.4,12.8,10,17.2c4.2,3.4,9,5.7,14.1,7.4c10.4,3.5,21,4.1,31.8,2.9c6.8-0.8,13.6-1.4,20.5-1.6
						c7.9-0.3,15.8-0.1,23.8,0.3c8.5,0.4,16.9,0.8,25.4,1.2c5.3,0.3,10.6,0.3,15.8-0.3c2.5-0.3,4.9-0.7,7.2-1.6
						c1.4-0.5,2.7-1.2,3.6-2.3c1.2-1.4,1.2-1.9,0.2-3.7c-5.1,1.9-10.4,2.2-15.8,1.5c5.3-0.6,10.6-1.4,15.3-4.5
						c-0.1-0.7-0.1-1.4-0.2-2c-0.5-4.5,0-9,0.6-13.5c0.6-4.8,0.9-9.6,0.1-14.4c-0.6-3.7-1.8-7.2-4-10.3c-2.6-3.7-6.2-6.2-10.3-7.9
						c-5.3-2.2-10.8-3.4-16.4-4.4c-6.1-1.1-12.3-2.2-18.4-3.5c-9.2-1.8-18.2-4.4-27.2-6.9c-7.3-2-14.5-3.9-21.8-5.8
						c-0.3-0.1-0.7-0.1-1.1-0.2c2.6,6.8,2.4,13.3-0.8,19.6c-3.3,6.3-8.5,10.1-15.4,11.9c0.7,1.1,1.6,2,2,3.4
						c-4.3-3.7-8.7-6.6-13.9-8c-5.3-1.4-10.5-0.9-15.7,0.1c1.6-1.3,3.5-1.9,5.5-2.6c-6.9-8.8-7.6-17.9-2.5-27.6
						c-1.8,0.1-3.4,0.5-5,0.9c-6.7,1.7-12.4,5-16.7,10.5c-3.2,4-5.3,8.5-6.9,13.3c-2.6,7.5-3.9,15.3-4.5,23.3
						c-0.5,7.6-0.7,15.3-1.1,23c-0.2,3.5-0.3,7-0.5,10.4c-0.1,2.1-0.2,4.1-0.3,6.2c-0.2,3.9-0.2,7.8,0.3,11.7
						c0.6,5.4,2,10.7,3.9,15.8c2.5,7.2,5.7,14,8.9,20.9c2.4,5.1,4.7,10.3,6.4,15.7c2.6,8.1,4.6,16.3,6.3,24.6c0.1,0.5,0.3,1,0.4,1.6
						c0.6-0.2,1.1-0.4,1.6-0.6c2.5-0.9,5.1-1.2,7.8-0.6c3.2,0.7,5.9,2.4,8.4,4.5c2.7,2.3,4.9,5.1,7.1,7.8c1.3,1.5,2.6,3.1,4,4.5
						c1.9,1.9,4.2,2.5,6.8,2c2.6-0.5,4.9-1.7,7-3.3c2.4-1.8,4.7-3.8,7-5.8c2.1-1.7,4-3.5,6.2-5.1c2.8-2.1,6.1-3.3,9.6-3.4
						c1.4-0.1,2.8,0.1,4.2,0.5c-0.1,0.1-0.2,0.1-0.2,0.1c-0.2,0-0.4,0-0.6,0c-2.8-0.2-5.5,0.5-8,1.8c-2.7,1.4-4.9,3.4-7,5.5
						c-2.5,2.5-5,5-7.5,7.4c-2,1.9-4.2,3.5-6.7,4.6c-4.3,2-9.4,2.3-13.7-1.9c-0.5-0.5-1.1-1-1.6-1.5c-1.6-1.8-3.2-3.7-4.8-5.5
						c-0.4-0.5-0.9-1-1.3-1.5c-1.3-1.5-2.7-2.9-4.3-4c-1.4-1-2.9-1.9-4.6-2.4c-2.6-0.8-5-0.3-7.3,0.7c-3.3,1.3-6.1,3.4-8.7,5.8
						c-0.2,0.2-0.4,0.4-0.7,0.8c2.8-0.5,5.4-0.9,8.1-1.3c-1.2,4.1-2.4,8-3.5,11.9l1.4,2.1c-2.3,2.1-4.2,4.4-6.3,6.7
						c-0.1,0-0.2-0.1-0.2-0.1c1.2-5.3,2.5-10.6,3.8-16c-4.7,1-9.3,1.9-14.1,2.9c4.1-5.4,8.3-10.3,13.8-14c-0.7-3.2-1.4-6.2-2.1-9.3
						c-1.5-6.7-3.2-13.2-5.4-19.7c-1.9-5.6-4.5-11-7-16.5c-3.1-7-6.1-13.9-8.5-21.2c-2.9-9.1-3.9-18.3-3-27.7c0.2-2.7,0.4-5.4,0.5-8
						c0.3-6.6,0.5-13.2,0.8-19.8c0.4-8.4,1.2-16.7,3.1-24.9c1.4-6.2,3.4-12.3,6.5-17.9c3.5-6.3,8.3-11.3,14.8-14.6
						c4.8-2.4,9.9-3.6,15.2-4.2c0.8-0.1,1.3-0.3,1.9-0.9c3.4-3.3,7.5-5.4,12.2-6.2c0.6-0.1,1.2-0.3,1.8-0.4c1.4,0,2.7,0,4.1,0
						c0.6,0.2,1.3,0.3,2,0.5c6,1.1,10.8,4.2,14.5,9c0.5,0.7,1.1,1.1,1.9,1.3c2.3,0.5,4.6,1.1,6.8,1.6c0.4,0.1,0.7,0.2,1.1,0.3
						c6.3-6.7,13.8-9.4,22.7-7c8.9,2.4,14,8.6,16.1,17.5c2.5,0.5,5,1.1,7.6,1.6c6.3,1.2,12.6,2.3,19,3.6c2.7,0.5,5.3,1.3,7.9,2
						c0.9,0.3,1.8,0.3,2.7,0c3.2-0.9,6.4-1.1,9.6-0.4c5.7,1.3,8.9,5,10.1,10.6c0.7,3.2,0.6,6.4,0.5,9.6c-0.1,2.9-0.3,5.7-0.4,8.5
						c-0.1,2.7-0.1,5.4-0.3,8.2c-0.1,2.2-0.5,4.5-0.6,6.7c-0.2,4.3,0.1,8.5,1.5,12.6c0.7,2,0.1,3.8-1.1,5.4
						c-1.4,1.7-3.1,2.9-5.1,3.8c-0.5,0.2-0.9,0.4-1.4,0.6c-0.8,5.7-3.2,10.4-7.1,14.5c-3.4,3.6-7.6,6-12.2,7.7
						c-3.8,1.4-7.8,2.3-11.9,3c-5.9,1.1-11.8,1.9-17.7,2.4c-8.2,0.7-16.1,2.6-24,5c-7.6,2.3-15.4,3.9-23.3,5
						c-1.4,0.2-2.9,0.4-4.3,0.5c-0.8,0.1-1.2,0.4-1.6,1.1c-0.1,0.3-0.2,0.6-0.3,0.8l-2.1-0.8c0.1-0.2,0.2-0.4,0.3-0.8
						c-7,3.5-14.1,5.7-21.6,6.6c-7.5,0.9-15,0.5-22.4-1.4c5.9,0.2,11.7-0.1,17.5-0.7c5.4-0.6,15.7-2.9,17.1-4.1
						c-5.1,0-10.1-0.2-15.1-0.8c-5.6-0.7-11-1.7-16.3-3.6c-10.6-3.8-17.7-10.9-20.8-21.8c-1.1-3.8-1.6-7.7-2.2-11.7
						c-0.2-1.5-0.4-3-0.5-4.5c0.3,0.3,0.5,0.7,0.6,1.1c0.7,2.6,1.3,5.3,2.1,7.9c1,3.8,2.2,7.5,4.1,11c3.9,6.8,9.8,11.4,17.3,13.7
						c7.7,2.4,15.6,3.1,23.6,3.3c6,0.2,11.9-0.3,17.8-0.9c6.4-0.7,12.8-1.7,19.1-3.3c5.4-1.3,10.7-2.9,16-4.3
						c6.1-1.6,12.2-2.6,18.5-3c3.5-0.2,7-0.5,10.6-0.9c3.7-0.4,7.4-1,11.1-1.6c4.4-0.7,8.6-1.9,12.6-4.1c5.3-3,9.2-7.1,11.3-12.9
						c0.2-0.4,0.2-0.9,0.4-1.4c-0.5,0-0.8,0-1.1,0.1c-3.4,0.6-6.9,0.8-10.3,0.9c-7.3,0.2-14.5-0.4-21.7-0.9
						c-1.6-0.1-3.2-0.2-4.8-0.3c-0.6,1.5-1.1,2.9-1.2,4.5c-0.1,1.5,0,3,0,4.8c-1.6-1.5-2.8-2.9-3.6-4.5c-0.8-1.7-1.6-3.4-2.4-5.2
						c-5-0.2-10.1-0.4-15.3-0.6c-0.5,1.7-1,3.2-1.3,4.8c-0.2,1.6-0.2,3.2-0.2,4.9c-2.9-2.7-4.6-6-5.8-9.7c-5.4,0.3-10.7,0.5-16,0.8
						c-1.4,3.2-2.1,6.3-1.5,9.8C182.1,159.4,180.8,157.4,178.2,151.7z"/>
					<path class="st2" d="M153.3,155.4c-0.9-1.9-1.3-3.8-1.6-6c1.4,0.3,2.7,0.6,4,0.9C154.9,152,154.1,153.6,153.3,155.4z"/>
					<path d="M118.8,284.6c-1.9-1-3.3-2.4-4.6-4c-1.9-2.3-3.7-4.6-5.6-6.9c-0.2-0.2-0.3-0.4-0.5-0.6c-1.6-2-3.5-3.8-5.6-5.1
						c-2.7-1.7-5.6-2.3-8.7-1.4c-1.6,0.5-3.1,1.1-4.6,1.9c-0.5-1.3-0.9-2.7-1.3-4.1c1.3-0.7,2.6-1.2,4-1.7c4.3-1.4,8.3-1,12.2,1.4
						c2.1,1.2,3.9,2.7,5.5,4.5c1.9,2.2,3.7,4.6,5.5,6.9c1.2,1.5,2.3,3,3.6,4.3c2.9,3,8.1,3.2,11.4,0.6c-1.2-4.9-2.3-9.8-3.5-14.8
						c-0.3,0.3-0.7,0.6-1,0.9l-1.4-2.1c2.9-2,5.8-3.9,8.9-5.5c0.9-0.5,1.9-0.9,2.8-1.3l0.4,0.9c-1.8,1.1-3.6,2.3-5.4,3.5
						c0,0.3,0,0.5,0.1,0.7c1.6,6.8,3,13.5,4.8,20.3c2.2,8.2,4.9,16.2,8.9,23.7c8.1,15.1,18.6,28.2,32.1,38.9
						c0.1,0.1,0.2,0.1,0.2,0.2c-2.3-0.4-4.6-0.9-6.9-1.5c-1.4-1.2-2.9-2.4-4.2-3.7c-0.2,0.7-0.3,1.3-0.5,1.8c0,0.2-0.1,0.3-0.1,0.5
						c-0.7-0.2-1.4-0.4-2.2-0.7c0.4-1,0.8-2.1,1.1-3.1c-12.4-12.1-22.1-26.1-28.8-42.2c-1.4,0.3-2.8,0.6-4.1,0.8
						c-4.7,0.8-9.3,0.4-13.7-1.4c-3.5-1.5-6.5-3.8-8.9-6.7c-1.9-2.3-3.6-4.8-5.5-7.2c-0.8-1.1-1.8-2-2.8-3c-0.7-0.7-1.4-0.7-2.3-0.2
						c-1.3,0.7-2.5,1.4-3.7,2.2c-0.2-0.5-0.5-1-0.7-1.5c2.4-1.3,4.8-2.3,7.5-3c1.4-0.4,2.8-0.7,4.2-0.5c-1.2,0.4-2.4,0.7-3.7,1.1
						c1.3,1.2,2.5,2.2,3.5,3.3c1.1,1.2,2.1,2.5,3.2,3.7c1.1,1.3,2.3,2.5,3.5,3.7c3.8,3.6,8.2,5.7,13.4,6c3,0.2,5.9-0.2,8.8-1
						c-1-3.2-2-6.3-3-9.4c-1.3,0.5-2.5,1-3.8,1.4C124.4,286.1,121.5,286.1,118.8,284.6z"/>
					<path d="M85.7,276.5c-1.4,0.2-2.6,0.4-3.8,0.6c-3.1,0.5-6.3,1.1-9.4,1.6c-0.4,0.1-0.8,0-1.1,0.1c0-0.1,0-0.2,0-0.3
						c0.6,0.1,0.8-0.5,1.1-0.9c2.7-3.2,5.5-6.3,8.8-8.9c2.1-1.7,4.3-3.2,6.6-4.4c0.4,1.4,0.8,2.7,1.3,4.1c-2.3,1.2-4.4,2.8-6.4,4.5
						c0,0,0,0.1,0,0.3c2.5-0.3,5-0.6,7.7-1c0,0.1,0.1,0.3,0.2,0.4c-0.6,1.9-1.3,3.7-1.9,5.5c-0.6,1.9-1.3,3.8-2.1,6.1
						c0.6-0.4,0.9-0.6,1.3-0.8c1.8-1.3,3.7-2.4,5.6-3.5c0.2,0.5,0.5,1,0.7,1.5c-2.7,1.8-5.3,3.8-7.7,6.1c-1.3,1.2-2.5,2.5-3.8,3.8
						c-0.4,0.4-0.7,0.9-1.1,1.4c-0.1-0.1-0.3-0.2-0.4-0.3C82.8,287.2,84.2,281.9,85.7,276.5z"/>
					<path d="M190.1,268.8c-1.6,0.1-3,0.4-4.4,1c-1.1,0.6-2.3,1.1-3.5,1.6c-4.4,2.1-8.9,4-13.8,4.9c-5.4,1-10.7,0.4-15.6-2.1
						c-3.4-1.8-6.1-4.3-8.5-7.2c-1.3-1.6-2.6-3.4-4-5c-1.1-1.4-2.4-2.7-4.2-3.5l-0.4-0.9c2.6-1,5-1.7,6.7-1.7c0.1,0,0.3,0,0.4,0
						c-1.4,0.5-2.9,0.8-4.1,1.5c1.1,0.9,2.1,1.6,3,2.5c1,0.9,1.8,1.9,2.7,2.9c1.8,1.8,3.5,3.6,5.4,5.3c4.3,3.7,9.3,5.4,15,5
						c3.3-0.2,6.5-1,9.6-2.1c3.4-1.2,6.8-2.5,10.2-3.8c1.7-0.6,3.4-0.9,5.3-0.8c1.8,0,3.7,0,5.5-0.2c3.7-0.4,6.9-2,9.4-4.9
						c0.2-0.2,0.3-0.4,0.5-0.6c0,0.3,0,0.6-0.2,0.8c-1.8,3.2-4.6,5.1-8.1,6.2C194.7,268.5,192.4,268.8,190.1,268.8z"/>
					<path d="M128,104.9c-2.3-1.3-4.7-1.2-6.6,0.6c-1.1,1-2,2.2-2.7,3.5c-0.8,1.3-1.4,2.7-2,4.1c-0.1,0.2-0.2,0.3-0.3,0.5
						c0.4-3.4,1.4-6.6,3.8-9.1c2.9-3,7-2.4,9.4-0.2c1.8,1.6,2.6,3.7,2.9,6.1c-0.5-0.8-1-1.7-1.5-2.5
						C130.3,106.7,129.3,105.6,128,104.9z"/>
					<path d="M283.1,240.2c3.6,2.3,7.8,2.9,11.8,3.9c5.8,1.4,11.5,3.2,17.2,5.1c-0.2,1.5-0.4,2.9-0.7,4.4c-3.6-1.5-7.2-3.1-10.8-4.6
						c-0.4-0.2-0.8-0.3-1.2-0.4c0,0.1-0.1,0.2-0.1,0.2c3.9,2.3,7.8,4.6,11.6,7.1c-0.1,0.4-0.2,0.8-0.3,1.3
						c-7.8-4-15.7-7.9-23.7-11.5c-12.8-5.8-26-10.6-39.6-14.2c-12.2-3.2-24.6-5.3-37.1-7.2c-6.8-1-13.5-2.2-20.1-4
						c-0.3-0.1-0.5-0.1-0.8-0.2c0.5,0.6,1.2,1.1,1.8,1.5c4.1,2.8,8.1,5.6,11.8,9c1.7,1.5,3.3,3.1,4.6,5c0.4,0.6,0.4,0.6,0.5,1.3
						c-2.8-2.6-6.1-4.5-9.4-6.4c-4.7-2.8-9.4-5.4-14.1-8.3c-3.4-2.1-6.5-4.5-9.3-7.4c-4.7-4.7-7.7-10.2-8.2-17c-0.2-2.7,0-5.4,1.3-8
						c0-0.1,0-0.1,0.1-0.2l2.1,0.8c-0.5,1.4-0.6,2.9-0.5,4.4c0.5,5.4,2.5,10.2,6.1,14.2c4.3,4.8,3.4,4.1,9.2,6
						c5.3,1.7,10.7,2.7,16.2,3.6c6.7,1,13.4,1.9,20.1,2.9c21.3,3.1,41.7,9,61.1,18.5C282.8,240.1,282.9,240.1,283.1,240.2z"/>
				</g>
				<g>
				</g>
			</g>
		</g>
		<g>
			<path d="M135,45.8c0,0,7.4-11.8,28.3-10.8l0.4,5.5c0,0,0.1-3.7,2.6-6c0,0,1,6.2-2.6,9.6c0,0-13.3-1.8-26.7,4.5L135,45.8z"/>
			<path d="M219.4,55.7c0,0-4.6-9.9-21-11.1l-0.9,4.3c0,0,0.3-2.9-1.5-5c0,0-1.4,4.7,1.1,7.7c0,0,10.5-0.1,20.3,6.1L219.4,55.7z"/>
		</g>
		<g>
			<circle class="st4" cx="146.3" cy="71.3" r="4.9"/>
			<circle cx="146.3" cy="71.3" r="2.6"/>
		</g>
		<circle cx="209.6" cy="70.3" r="2.5"/>
		<path class="st5" d="M316.3,232.9c0,65.1-52.8,117.9-117.9,117.9c-36.1,0-68.3-16.2-89.9-41.7"/>
	</g>
	<g>
		<path d="M123.5,109.3c0,0-0.2,0.9-0.4,2.7c-0.2,1.8-0.2,4.4,0.3,7.7c0.3,1.6,0.6,3.4,1.3,5.2c0.3,0.9,0.7,1.9,1.1,2.8
			c0.2,0.5,0.5,0.9,0.7,1.4c0.2,0.5,0.5,1,0.8,1.4c0.3,0.5,0.6,0.9,0.9,1.4c0.4,0.5,0.7,1,1.1,1.4c0.2,0.2,0.4,0.5,0.6,0.7l0.6,0.6
			c0.4,0.4,0.8,0.9,1.3,1.3c1.9,1.7,4,3.2,6.4,4.6c2.4,1.3,5,2.6,7.8,3.5c2.8,1,5.8,1.8,8.9,2.5c6.3,1.2,13,1.6,19.9,1.2
			c1.7-0.1,3.5-0.3,5.2-0.5c1.8-0.2,3.7-0.4,5.5-0.6c3.7-0.4,7.5-0.7,11.3-0.8c7.6-0.4,15.4-0.3,23.1,0c7.7,0.3,15.3,0.9,22.8,1.3
			c1.9,0.1,3.7,0.2,5.6,0.3c1.9,0.1,3.8,0.2,5.5,0.2c3.6,0.1,7.2,0.1,10.6-0.3c1.7-0.1,3.4-0.4,4.9-0.7c1.5-0.4,3-0.8,4.2-1.5
			c0.6-0.3,1.1-0.7,1.5-1.1c0.2-0.2,0.4-0.4,0.6-0.7c0.1-0.1,0.2-0.3,0.3-0.4l0.1-0.1l0-0.1c-0.2,0.4,0,0.1-0.1,0.1l0.1-0.3l0.1-0.1
			c0,0,0,0,0,0c0,0.1,0,0.1,0,0.2c0,0,0,0,0,0c0-0.1-0.1-0.4-0.2-0.8c-0.2-0.7-0.4-1.6-0.6-2.5c-1.5-7.1-0.2-13.6,0.5-19.2
			c0.3-2.8,0.5-5.4,0.5-8c0-1.3-0.1-2.5-0.2-3.7c-0.2-1.2-0.3-2.3-0.6-3.4c-0.9-4.4-2.9-7.9-5-10.4c-2.1-2.5-4.3-4-5.8-5
			c-1.6-0.9-2.4-1.4-2.4-1.4s0.2,0.1,0.7,0.3c0.4,0.2,1.1,0.4,1.9,0.8c1.6,0.8,4,2,6.5,4.5c2.5,2.4,5,6,6.3,10.6
			c0.4,1.2,0.6,2.4,0.9,3.6c0.2,1.3,0.4,2.6,0.5,3.9c0.3,2.7,0.2,5.5,0,8.5c-0.1,1.4-0.2,2.9-0.3,4.4c-0.1,0.7-0.1,1.5-0.1,2.2
			c0,0.7-0.1,1.5-0.1,2.2c0,3,0.1,6,0.9,8.9c0.2,0.7,0.4,1.4,0.7,2.3c0.1,0.4,0.3,1,0.4,1.6c0,0.2,0,0.4,0,0.6c0,0.2,0,0.4,0,0.6
			c0,0.3-0.1,0.5-0.2,0.8c0,0.1-0.1,0.3-0.1,0.3l-0.1,0.1l-0.1,0.3c-0.1,0.1,0.1-0.2-0.2,0.3l0,0.1l-0.1,0.1
			c-0.1,0.2-0.2,0.4-0.4,0.6c-0.3,0.4-0.6,0.9-1,1.3c-0.8,0.8-1.6,1.5-2.5,2.1c-1.8,1.1-3.7,1.7-5.5,2.2c-1.9,0.4-3.7,0.8-5.6,1
			c-3.7,0.4-7.4,0.6-11.3,0.6c-1.9,0-3.7-0.1-5.6-0.1c-1.9-0.1-3.8-0.2-5.7-0.2c-7.5-0.3-15.2-0.8-22.8-1.1
			c-7.6-0.4-15.1-0.5-22.6-0.2c-3.7,0.1-7.4,0.3-11,0.6c-1.8,0.2-3.6,0.3-5.4,0.5c-1.9,0.1-3.7,0.3-5.6,0.3
			c-7.4,0.3-14.6-0.5-21.2-2.1c-6.6-1.6-12.6-4.1-17.6-7.4c-1.2-0.9-2.4-1.7-3.5-2.6c-1.1-0.9-2.1-1.9-3.1-2.9
			c-0.5-0.5-0.9-1.1-1.3-1.6c-0.4-0.5-0.9-1.1-1.2-1.6c-0.3-0.5-0.7-1-1-1.5c0,0-0.1-0.1-0.1-0.1l0-0.1l-0.1-0.1L126,133l-0.2-0.4
			c-0.1-0.3-0.3-0.5-0.4-0.8c-1.1-2.2-1.9-4.3-2.3-6.3c-0.5-2-0.7-3.9-0.8-5.6c-0.2-3.4,0.2-6.1,0.6-7.8
			C123.2,110.2,123.5,109.3,123.5,109.3z"/>
	</g>
</g>
</svg>
