<?xml version="1.0" encoding="UTF-8" standalone="no"?>
<!-- Created with Inkscape (http://www.inkscape.org/) -->

<svg
   xmlns:dc="http://purl.org/dc/elements/1.1/"
   xmlns:cc="http://creativecommons.org/ns#"
   xmlns:rdf="http://www.w3.org/1999/02/22-rdf-syntax-ns#"
   xmlns:svg="http://www.w3.org/2000/svg"
   xmlns="http://www.w3.org/2000/svg"
   xmlns:xlink="http://www.w3.org/1999/xlink"
   xmlns:sodipodi="http://sodipodi.sourceforge.net/DTD/sodipodi-0.dtd"
   xmlns:inkscape="http://www.inkscape.org/namespaces/inkscape"
   width="80.634933mm"
   height="80.634933mm"
   viewBox="0 0 285.71433 285.71433"
   id="svg4747"
   version="1.1"
   inkscape:version="0.91 r13725"
   sodipodi:docname="zh1_white.svg">
  <defs
     id="defs4749">
    <linearGradient
       id="linearGradient5765"
       y2="641.03003"
       xlink:href="#linearGradient4852"
       gradientUnits="userSpaceOnUse"
       x2="440.34"
       y1="611.07001"
       x1="425.35001" />
    <linearGradient
       id="linearGradient4852">
      <stop
         id="stop4854"
         stop-color="#f5ffb4"
         offset="0" />
      <stop
         id="stop4856"
         stop-color="#fefff6"
         offset="1" />
    </linearGradient>
    <linearGradient
       id="linearGradient5767"
       y2="591.81"
       xlink:href="#linearGradient4852"
       gradientUnits="userSpaceOnUse"
       x2="666.48999"
       y1="597.79999"
       x1="627.54999" />
    <linearGradient
       id="linearGradient5769"
       y2="654.71002"
       xlink:href="#linearGradient4852"
       gradientUnits="userSpaceOnUse"
       x2="274.09"
       y1="635.23999"
       x1="229.14999" />
    <linearGradient
       id="linearGradient5771"
       y2="912.32001"
       xlink:href="#linearGradient4852"
       gradientUnits="userSpaceOnUse"
       x2="383.42001"
       y1="958.75"
       x1="357.95999" />
    <clipPath
       clipPathUnits="userSpaceOnUse"
       id="clipPath5640">
      <circle
         style="fill:#d50000;fill-opacity:0.94117647"
         id="circle5642"
         cx="337.68805"
         cy="204.71902"
         r="140" />
    </clipPath>
  </defs>
  <sodipodi:namedview
     id="base"
     pagecolor="#ffffff"
     bordercolor="#666666"
     borderopacity="1.0"
     inkscape:pageopacity="0.0"
     inkscape:pageshadow="2"
     inkscape:zoom="1.4"
     inkscape:cx="117.53713"
     inkscape:cy="18.358584"
     inkscape:document-units="px"
     inkscape:current-layer="layer3"
     showgrid="false"
     inkscape:window-width="1855"
     inkscape:window-height="1056"
     inkscape:window-x="65"
     inkscape:window-y="24"
     inkscape:window-maximized="1"
     fit-margin-top="0"
     fit-margin-left="0"
     fit-margin-right="0"
     fit-margin-bottom="0" />
  <metadata
     id="metadata4752">
    <rdf:RDF>
      <cc:Work
         rdf:about="">
        <dc:format>image/svg+xml</dc:format>
        <dc:type
           rdf:resource="http://purl.org/dc/dcmitype/StillImage" />
        <dc:title></dc:title>
      </cc:Work>
    </rdf:RDF>
  </metadata>
  <g
     inkscape:groupmode="layer"
     id="layer3"
     inkscape:label="Layer 2"
     transform="translate(-273.57143,-25.933594)">
    <circle
       style="fill:#ffffff;fill-opacity:1"
       id="path5645"
       cx="416.42859"
       cy="168.79076"
       r="142.85716" />
  </g>
  <g
     inkscape:groupmode="layer"
     id="layer2"
     inkscape:label="circle"
     transform="translate(-273.57143,-25.933594)" />
  <g
     inkscape:label="Layer 1"
     inkscape:groupmode="layer"
     id="layer1"
     transform="translate(-273.57143,-25.933594)">
    <g
       id="g5682"
       transform="translate(80.169121,-32.356814)"
       clip-path="url(#clipPath5640)">
      <g
         id="g5653">
        <path
           id="path5157"
           d="m 235.4,801.46 -12.905,93.141 c 0,0 -4.4888,-5.0498 -8.9775,-4.4887 -4.4887,0.56109 -11.783,45.449 -10.1,47.693 1.6833,2.2444 11.222,6.172 11.783,11.783 0.56109,5.6109 2.8055,21.883 8.9775,37.032 6.172,15.149 18.516,26.932 19.077,31.982 0.56108,5.0499 -4.4887,15.15 -10.1,15.15 -5.6109,0 -15.15,-9.5386 -15.15,-9.5386 0,0 -2.8055,8.4164 -9.5386,8.4164 -6.7331,0 -8.4164,-11.222 -8.4164,-11.222 0,0 -2.8055,7.8553 -8.4164,7.8553 -5.6109,0 -5.6109,-11.783 -5.6109,-11.783 0,0 -4.6456,3.3577 -6.7331,2.2444 -4.9646,-2.6477 -4.4888,-10.1 -4.4888,-16.272 0,-6.172 15.711,-47.132 15.711,-51.059 0,-3.9276 23.005,-175.62 23.005,-175.62 z m 95.114,-43.024 c 0,0 0.83318,48.074 0.27209,53.684 -0.56109,5.6109 -20.199,88.092 -19.638,103.8 0.56109,15.711 -1.1222,57.231 2.2444,59.476 3.3666,2.2444 31.982,9.5386 40.96,11.783 8.9775,2.2444 20.199,6.172 20.199,6.172 0,0 8.9775,-7.2942 14.588,-6.172 5.6109,1.1222 6.172,16.272 0.56109,23.005 -5.6109,6.7331 -18.516,3.3666 -18.516,3.3666 0,0 -6.172,5.6109 -12.344,6.172 -6.172,0.5611 -29.738,-7.2942 -37.593,-7.8553 -7.8553,-0.5611 -33.104,2.2444 -39.838,-1.1222 -6.7331,-3.3665 -0.5611,-39.838 5.6109,-63.965 6.172,-24.127 21.322,-112.22 21.322,-122.32 l 0,-64.713 z"
           inkscape:connector-curvature="0"
           style="fill:#89a02c" />
        <path
           id="path5159"
           d="m 308.34,784.11 c 11.313,1.0116 15.986,-10.582 19,-10.31 0.0545,5.5828 3.6374,23.585 3.6331,28.132 l -7.4625,9.0336 -3.584,-9.7209 -1.1292,10.016 c 0,0 -3.3554,8.8724 -3.6331,10.261 -0.27772,1.3886 -13.845,71.378 -13.845,76.933 0,5.5545 2.7494,22.245 2.7494,24.744 0,2.4996 -6.6784,39.968 -7.5116,42.468 -0.83318,2.4995 -5.2657,6.6842 -3.0439,10.85 2.2218,4.1659 9.7238,3.6008 11.39,3.8786 1.6664,0.27773 10.256,13.898 16.643,16.398 6.3877,2.4995 24.447,16.102 32.501,15.269 8.0541,-0.8332 19.736,-8.8864 19.736,-8.8864 0,0 -2.5092,5.2547 3.8786,6.0879 3.7927,0.4947 9.6883,-0.8708 13.894,-2.062 -0.52052,1.0994 -1.1424,2.127 -1.8656,2.9948 -5.6109,6.7331 -18.509,3.3876 -18.509,3.3876 0,0 -6.151,5.5759 -12.323,6.137 -6.172,0.5611 -29.752,-7.2942 -37.607,-7.8553 -7.8553,-0.5611 -33.083,2.2373 -39.817,-1.1292 -6.7331,-3.3666 -0.57514,-39.796 5.5969,-63.923 6.17204,-24.127 21.308,-112.25 21.308,-122.35 z m -96.277,3.7804 12.421,1.2765 10.899,12.323 -3.3876,24.401 -10.408,-19.098 -8.5917,29.997 c 0,0 -17.216,103.86 -16.938,108.3 0.27772,4.4436 1.9133,7.2411 1.0801,11.685 -0.83318,4.4436 -16.679,36.948 -18.067,43.892 -1.3886,6.9431 1.6692,18.607 1.6692,18.607 l 8.0517,-4.4677 c 0,0 1.7044,10.002 3.093,11.39 1.3886,1.3886 2.7494,1.4238 2.7494,1.4238 l 4.6641,-4.5168 c -1.1667,2.3034 -3.7027,6.186 -7.6589,6.186 -5.6109,0 -5.5969,-11.783 -5.5969,-11.783 0,0 -4.6386,3.3225 -6.7261,2.2093 -4.9646,-2.6477 -4.5168,-10.079 -4.5168,-16.251 0,-6.172 15.711,-47.132 15.711,-51.059 0,-3.6752 18.964,-145.18 21.553,-164.52 z m 7.5607,230.85 c 0,0 4.1986,8.5946 9.4755,10.261 2.3698,0.7484 5.6871,1.7087 8.6899,2.553 -1.4136,1.3379 -2.9817,2.2093 -4.615,2.2093 -5.6109,0 -15.171,-9.5245 -15.171,-9.5245 0,0 -2.7914,8.3953 -9.5246,8.3953 -5.96,0 -7.8666,-8.3891 -8.2481,-10.408 l 2.4548,-2.4056 c 0,0 2.2291,5.5675 4.1731,7.5116 1.9441,1.9441 6.677,2.5039 6.677,2.5039 z"
           inkscape:connector-curvature="0"
           style="fill:#677821" />
        <path
           id="path5161"
           d="m 229.36,817.36 -10.276,74.431 3.8882,3.055 9.7204,-74.986 z m 97.76,-13.886 c 1.1109,8.0541 -1.1109,16.108 -1.9441,20.274 -0.83318,4.1659 -17.497,79.43 -17.219,82.763 0.27774,3.3327 -0.27773,59.989 1.1109,65.544 1.3886,5.5545 8.0541,8.8872 13.609,10.831 5.5546,1.9441 52.768,11.942 52.768,11.942 0,0 10.167,-6.7607 12.111,-5.3721 1.9441,1.3886 5.9415,7.0385 5.3861,12.038 -0.27773,-14.442 -3.8882,-14.72 -3.8882,-14.72 l -14.72,6.3877 -59.711,-17.219 -2.7773,-5.8323 -0.83318,-56.101 18.885,-98.038 1.1109,-15.553 z m -124.98,135.25 7.7764,7.7763 c 1.6664,1.6664 4.4436,21.94 5.2768,23.885 0.83318,1.9441 11.109,29.439 15.83,34.994 4.7214,5.5546 6.9432,9.4427 8.6095,13.331 1.6664,3.8882 1.1109,11.387 1.1109,11.387 l 2.7773,-12.498 -18.052,-27.773 -9.4427,-33.883 -1.1109,-10.276 z"
           inkscape:connector-curvature="0"
           style="fill:#dde9af" />
        <path
           id="path5163"
           d="m 235.4,801.46 -12.905,93.141 c 0,0 -4.4888,-5.0498 -8.9775,-4.4887 -4.4887,0.56109 -11.783,45.449 -10.1,47.693 1.6833,2.2444 11.222,6.172 11.783,11.783 0.56109,5.6109 2.8055,21.883 8.9775,37.032 6.172,15.149 18.516,26.932 19.077,31.982 0.56108,5.0499 -4.4887,15.15 -10.1,15.15 -5.6109,0 -15.15,-9.5386 -15.15,-9.5386 0,0 -2.8055,8.4164 -9.5386,8.4164 -6.7331,0 -8.4164,-11.222 -8.4164,-11.222 0,0 -2.8055,7.8553 -8.4164,7.8553 -5.6109,0 -5.6109,-11.783 -5.6109,-11.783 0,0 -4.6456,3.3577 -6.7331,2.2444 -4.9646,-2.6477 -4.4888,-10.1 -4.4888,-16.272 0,-6.172 15.711,-47.132 15.711,-51.059 0,-3.9276 23.005,-175.62 23.005,-175.62 z m 95.114,-43.024 c 0,0 0.83318,48.074 0.27209,53.684 -0.56109,5.6109 -20.199,88.092 -19.638,103.8 0.56109,15.711 -1.1222,57.231 2.2444,59.476 3.3666,2.2444 31.982,9.5386 40.96,11.783 8.9775,2.2444 20.199,6.172 20.199,6.172 0,0 8.9775,-7.2942 14.588,-6.172 5.6109,1.1222 6.172,16.272 0.56109,23.005 -5.6109,6.7331 -18.516,3.3666 -18.516,3.3666 0,0 -6.172,5.6109 -12.344,6.172 -6.172,0.5611 -29.738,-7.2942 -37.593,-7.8553 -7.8553,-0.5611 -33.104,2.2444 -39.838,-1.1222 -6.7331,-3.3665 -0.5611,-39.838 5.6109,-63.965 6.172,-24.127 21.322,-112.22 21.322,-122.32 l 0,-64.713 z"
           inkscape:connector-curvature="0"
           style="fill:none;stroke:#22280b;stroke-width:3.1421001" />
        <path
           id="path5165"
           d="m 310.38,585.17 c 0,0 0.7935,43.246 1.9838,54.752 1.1903,11.506 13.093,79.747 17.854,88.873 4.761,9.1253 14.283,71.019 14.283,71.019 l -9.1253,-7.935 -10.316,8.7286 -7.5383,-28.963 -1.1902,23.408 -4.3643,-6.7448 -7.935,11.506 c 0,0 -1.1903,-9.9188 -1.9838,-18.251 -0.7935,-8.3318 -3.5708,-75.78 -5.5546,-94.427 -1.9838,-18.647 -5.9513,-70.225 -10.712,-72.209 -4.761,-1.9838 -23.805,-0.39676 -27.376,0.39675 -3.5708,0.79351 -5.9513,45.23 -6.7448,52.768 -0.79351,7.5383 -11.903,111.88 -11.506,119.03 0.39675,7.1416 3.174,28.566 3.174,28.566 l -6.7448,-7.1415 -3.9675,11.903 -3.9675,-15.077 -5.5545,-11.109 -12.696,40.072 -4.761,-5.9513 -4.761,1.9838 c 0,0 5.1578,-41.262 7.1416,-55.149 1.9838,-13.886 15.87,-136.48 17.06,-151.56 1.1903,-15.077 2.7773,-48.007 2.7773,-48.007 z"
           inkscape:connector-curvature="0"
           style="fill:#5f8dd3" />
        <path
           id="path5167"
           d="m 227.52,582.08 66.917,1.2765 15.956,1.8165 c 0,0 0.15333,6.4199 0.34366,14.238 -1.4409,0.11201 -11.147,0.90912 -15.269,2.4548 -4.4436,1.6664 -8.0517,11.096 -8.0517,11.096 l 16.103,17.233 -11.685,-8.8863 11.93,32.452 -7.4625,-11.93 c 0,0 8.3,71.948 9.9664,75.558 1.2144,2.6313 3.4855,47.917 4.615,72.514 l -6.8734,9.9173 c 0,0 -1.1703,-9.9318 -1.9638,-18.264 -0.7935,-8.3318 -3.564,-75.764 -5.5478,-94.411 -1.9838,-18.647 -5.9418,-70.236 -10.703,-72.22 -4.761,-1.9838 -23.825,-0.40074 -27.395,0.39277 -0.93246,0.20721 -1.7899,3.4247 -2.553,8.1499 l -12.323,27.003 11.096,-34.465 c 0,0 3.5994,-8.5807 3.0439,-11.636 -0.55544,-3.055 -11.627,-8.081 -16.349,-6.137 -4.7214,1.9441 -9.1655,14.164 -9.7209,18.607 -0.55545,4.4436 -10,111.93 -10.556,114.15 -0.50648,2.0258 -9.4792,86.522 -11.194,102.71 l -4.2222,-5.3023 -4.7623,1.9638 c 0,0 5.1842,-41.248 7.168,-55.134 1.9838,-13.886 15.846,-136.48 17.036,-151.56 0.98177,-12.436 2.0464,-33.354 2.4548,-41.584 z"
           inkscape:connector-curvature="0"
           style="fill:#2c5aa0" />
        <path
           id="path5169"
           d="m 310.38,585.17 c 0,0 0.7935,43.246 1.9838,54.752 1.1903,11.506 13.093,79.747 17.854,88.873 4.761,9.1253 14.283,71.019 14.283,71.019 l -9.1253,-7.935 -10.316,8.7286 -7.5383,-28.963 -1.1902,23.408 -4.3643,-6.7448 -7.935,11.506 c 0,0 -1.1903,-9.9188 -1.9838,-18.251 -0.7935,-8.3318 -3.5708,-75.78 -5.5546,-94.427 -1.9838,-18.647 -5.9513,-70.225 -10.712,-72.209 -4.761,-1.9838 -23.805,-0.39676 -27.376,0.39675 -3.5708,0.79351 -5.9513,45.23 -6.7448,52.768 -0.79351,7.5383 -11.903,111.88 -11.506,119.03 0.39675,7.1416 3.174,28.566 3.174,28.566 l -6.7448,-7.1415 -3.9675,11.903 -3.9675,-15.077 -5.5545,-11.109 -12.696,40.072 -4.761,-5.9513 -4.761,1.9838 c 0,0 5.1578,-41.262 7.1416,-55.149 1.9838,-13.886 15.87,-136.48 17.06,-151.56 1.1903,-15.077 2.7773,-48.007 2.7773,-48.007 z"
           inkscape:connector-curvature="0"
           style="fill:none;stroke:#214478;stroke-width:3.1421001;stroke-linejoin:round" />
        <path
           id="path5171"
           d="m 212.4,480.8 c 0,0 -8.9775,1.6833 -10.1,2.8055 -1.1222,1.1222 -14.027,16.833 -14.027,16.833 l -10.1,-1.4027 20.48,15.15 z m 3.6471,-27.494 c -4.2082,7.0136 -6.7331,6.7331 -8.4164,5.6109 -1.6833,-1.1222 -10.941,-7.0137 -10.941,-7.0137 0,0 -3.3665,8.1358 -7.2942,8.4164 -3.9276,0.28055 -8.4164,-3.086 -8.4164,-3.086 l 26.371,-33.946 z m 126.53,85.567 c 2.8055,1.9638 4.7693,3.9276 2.8055,5.6109 -1.9638,1.6833 -11.783,1.1222 -11.783,1.1222 0,0 5.0498,7.2942 4.2082,8.6969 -0.84165,1.4027 -1.6833,3.9276 -5.6109,2.5249 -3.9276,-1.4027 -13.747,-4.2082 -13.747,-4.2082 l -7.8553,-26.652 14.308,-1.9638 z"
           inkscape:connector-curvature="0"
           style="fill:#3e4837" />
        <path
           id="path5173"
           d="m 165.65,655.56 -37.418,-25.114 c 0,0 5.6109,-10.661 -3.3666,-14.027 -8.9775,-3.3666 -16.272,7.8553 -14.027,12.344 2.2444,4.4888 -0.0338,6.7613 1.0884,11.25 1.1221,4.4887 8.439,2.828 12.928,3.9502 4.4887,1.1222 36.443,21.838 36.443,21.838 z"
           inkscape:connector-curvature="0"
           style="fill:#ffffff;stroke:#999999;stroke-width:3.1421001" />
        <path
           id="path5175"
           d="m 208.75,437.31 -10.1,70.137 -11.39,-0.56109 11.222,-74.064 z"
           inkscape:connector-curvature="0"
           style="fill:#ffffff;stroke:#999999;stroke-width:3.1421001" />
        <path
           id="path5177"
           d="m 157.97,638.19 c 0,0 57.793,43.204 63.403,44.887 5.6109,1.6833 25.81,-8.9775 33.666,-10.1 7.8553,-1.1222 20.171,10.128 22.977,16.3 2.8055,6.172 -2.0199,13.27 -2.0199,13.27 -1.9638,-3.9276 -14.28,-12.204 -14.28,-12.204 0,0 14.083,9.5666 15.767,17.422 1.6833,7.8553 1.1222,17.955 -4.4888,19.077 -5.6109,1.1222 -6.172,-9.5386 -8.4164,-12.905 -2.2444,-3.3666 -11.783,-8.4164 -11.783,-8.4164 0,0 8.9775,10.661 10.661,18.516 1.6833,7.8553 -0.5611,16.833 -3.9276,17.394 -3.3666,0.56109 -8.4164,1.1222 -10.1,-7.8553 -1.6833,-8.9775 -7.2942,-19.077 -7.2942,-19.077 0,0 1.4138,14.383 -2.9177,19.189 -4.3732,4.8525 -15.598,7.7431 -18.965,4.9376 -3.3666,-2.8054 6.172,-11.783 6.172,-11.783 0,0 -0.5611,-12.344 -3.3666,-14.027 -2.8055,-1.6833 -10.1,-3.9276 -14.027,-5.0498 -3.9276,-1.1222 -23.005,-17.955 -23.005,-17.955 l -43.204,-20.76 5.6109,-4.4887 -2.8055,-4.4887 c 0,0 5.0498,0 5.0498,-2.2444 0,-2.2444 -2.8055,-11.783 -2.8055,-11.783 l 13.466,-1.038 z"
           inkscape:connector-curvature="0"
           style="fill:#89a02c" />
        <path
           id="path5179"
           d="m 157.96,638.19 c 0,0 8.6002,6.3785 18.755,13.845 l -8.1499,25.922 19.442,5.7933 c 0,0 24.962,18.349 27.739,20.571 2.7773,2.2218 14.454,5.2758 16.398,8.8863 1.7756,3.2976 6.3605,17.602 7.2171,20.276 -0.0507,0.061 -0.0949,0.13825 -0.14721,0.19638 -4.3732,4.8525 -15.584,7.7641 -18.951,4.9587 -3.3666,-2.8055 6.186,-11.783 6.186,-11.783 0,0 -0.58214,-12.358 -3.3876,-14.041 -2.8055,-1.6833 -10.114,-3.9347 -14.041,-5.0568 -3.9276,-1.1222 -22.977,-17.969 -22.977,-17.969 l -43.204,-20.767 5.5968,-4.4677 -2.7984,-4.4677 c 0,0 5.0568,-0.0141 5.0568,-2.2584 0,-1.9382 -1.8349,-8.4315 -2.4057,-10.408 l 0.88372,-1.4729 12.176,-0.93282 z m 99.713,61.664 c 0,0 8.906,5.0289 10.85,7.8062 0.94977,1.3568 4.1091,9.6388 7.0698,17.724 -0.70654,0.74019 -1.5733,1.2671 -2.6021,1.4729 -5.6109,1.1222 -6.151,-9.5456 -8.3954,-12.912 -1.6833,-2.5249 -7.4731,-6.0317 -10.261,-7.6098 l -0.0492,0 -1.1713,-1.0577 c 1.5196,-1.8076 1.3816,-4.7175 4.5589,-5.4229 z m -11.39,11.979 c 0,0 5.3052,9.9905 6.9716,14.434 1.2737,3.3965 4.3622,11.055 6.0388,15.22 -3.362,0.54294 -8.2242,0.86372 -9.8682,-7.9044 -1.382,-7.3706 -5.2298,-15.198 -6.6279,-17.871 0,0 -0.21313,-1.4908 0.16413,-2.0719 0.68635,-1.0571 3.3217,-1.8067 3.3217,-1.8067 z m -3.9276,6.8734 c 0.0669,3.8788 -0.217,9.5064 -1.9638,13.109 z"
           inkscape:connector-curvature="0"
           style="fill:#677821" />
        <path
           id="path5181"
           d="m 253.5,672.22 c 0,0 12.961,4.124 15.907,6.4806 2.9457,2.3566 9.0336,10.212 10.212,13.943 1.1783,3.7313 -1.5711,8.6408 -1.5711,8.6408 l -2.9457,-0.39277 c 0,0 0.98191,-5.8915 0.58915,-8.4444 -0.39277,-2.553 -6.677,-10.212 -10.997,-13.158 -4.3204,-2.9457 -11.194,-7.0698 -11.194,-7.0698 z m 7.0698,19.049 10.997,6.0879 6.8734,13.55 -1.1783,9.6227 c 0,0 -1.5711,-13.354 -5.106,-17.282 -3.5349,-3.9276 -11.587,-11.979 -11.587,-11.979 z m -8.2481,15.121 8.8372,10.605 3.1421,13.55 -2.553,9.0336 c 0,0 -0.58915,-11.783 -1.9638,-17.478 -1.3747,-5.6951 -9.4264,-13.747 -9.4264,-13.747 l 1.9638,-1.9638 z m -10.801,8.4444 c 0,0 1.9638,10.408 -2.3566,17.871 1.1783,-5.4987 -0.78553,-17.674 -0.78553,-17.674 l 3.1421,-0.19638 z"
           inkscape:connector-curvature="0"
           style="fill:#dde9af" />
        <path
           id="path5183"
           d="m 157.97,638.19 c 0,0 57.793,43.204 63.403,44.887 5.6109,1.6833 25.81,-8.9775 33.666,-10.1 7.8553,-1.1222 20.171,10.128 22.977,16.3 2.8055,6.172 -2.0199,13.27 -2.0199,13.27 -1.9638,-3.9276 -14.28,-12.204 -14.28,-12.204 0,0 14.083,9.5666 15.767,17.422 1.6833,7.8553 1.1222,17.955 -4.4888,19.077 -5.6109,1.1222 -6.172,-9.5386 -8.4164,-12.905 -2.2444,-3.3666 -11.783,-8.4164 -11.783,-8.4164 0,0 8.9775,10.661 10.661,18.516 1.6833,7.8553 -0.5611,16.833 -3.9276,17.394 -3.3666,0.56109 -8.4164,1.1222 -10.1,-7.8553 -1.6833,-8.9775 -7.2942,-19.077 -7.2942,-19.077 0,0 1.4138,14.383 -2.9177,19.189 -4.3732,4.8525 -15.598,7.7431 -18.965,4.9376 -3.3666,-2.8054 6.172,-11.783 6.172,-11.783 0,0 -0.5611,-12.344 -3.3666,-14.027 -2.8055,-1.6833 -10.1,-3.9276 -14.027,-5.0498 -3.9276,-1.1222 -23.005,-17.955 -23.005,-17.955 l -43.204,-20.76 5.6109,-4.4887 -2.8055,-4.4887 c 0,0 5.0498,0 5.0498,-2.2444 0,-2.2444 -2.8055,-11.783 -2.8055,-11.783 l 13.466,-1.038 z"
           inkscape:connector-curvature="0"
           style="fill:none;stroke:#22280b;stroke-width:3.1421001" />
        <path
           id="path5185"
           d="m 211.27,483.89 c -1.6833,16.833 -17.955,92.019 -16.272,118.39 1.6833,26.371 -3.3666,30.86 -3.9276,37.593 -0.56109,6.7331 6.172,24.688 6.172,24.688 l -6.172,-0.56109 c 0,0 -3.3666,36.471 -8.4164,38.154 -5.0498,1.6833 -15.711,-2.8055 -15.711,-2.8055 0,0 -15.711,-5.6109 -17.394,-7.8553 -1.6833,-2.2444 1.6833,-12.344 1.6833,-12.344 l 5.6109,-2.2444 c 0,0 14.027,-17.394 15.15,-24.127 1.1222,-6.7331 -1.6833,-8.9775 -2.2444,-11.222 -0.56109,-2.2444 7.8553,-16.272 10.1,-26.932 2.2444,-10.661 3.9276,-46.01 -2.2444,-74.064 -6.172,-28.055 1.1222,-39.838 1.1222,-39.838 l 8.4164,3.9276 7.2942,-12.905 5.0498,7.2942 z m 90.9,-177.87 c 0,0 -14.588,29.738 -13.466,32.543 1.1222,2.8055 16.833,10.1 19.077,14.588 2.2444,4.4888 -6.172,78.553 -4.4887,88.653 1.6833,10.1 22.444,80.797 39.838,97.63 -11.222,0 -13.466,-1.6833 -13.466,-1.6833 l 7.8553,15.149 -17.955,-8.9775 2.8055,15.15 c 0,0 -14.588,-19.638 -15.15,-26.371 -0.56109,-6.7331 -30.86,-121.76 -30.86,-121.76 l -37.032,5.6109 -3.3666,-28.055 c 0,0 -18.516,37.032 -20.199,62.842 l -7.8553,-8.4164 -3.3666,15.711 -3.9276,-14.027 -5.0498,5.6109 -1.1222,-2.8054 -11.783,7.8553 c 0,0 8.4164,-28.055 11.222,-34.788 2.8054,-6.7331 9.5386,-46.571 17.955,-60.598 8.4164,-14.027 49.376,-28.055 51.621,-31.421 2.2444,-3.3666 15.15,-66.209 15.15,-66.209 z"
           inkscape:connector-curvature="0"
           style="fill:#89a02c" />
        <path
           id="path5187"
           d="m 277.95,265.31 3.0439,13.158 c 0,0 -2.553,21.602 -3.7313,22.977 -1.1783,1.3747 -3.1421,11.783 -3.7313,14.14 -0.58915,2.3566 0.58915,22.388 0,25.137 -0.30617,1.4288 -7.5604,1.7548 -15.171,1.8656 l 29.163,56.214 c 0,0 1.818,-8.4685 2.6512,-12.912 0.83318,-4.4436 0.83462,-43.842 0.83462,-43.842 l 5.4496,2.8966 -1.8165,65.985 -55.969,-0.73643 -3.4858,-21.111 6.677,-11.243 c 0,0 2.6288,-0.27628 3.8786,0.83463 1.2498,1.11091 0.83462,5.155 0.83462,5.155 0,0 2.3426,-8.2062 3.7313,-12.372 1.3886,-4.1659 3.5166,-11.79 2.4057,-15.956 -0.95156,-3.5683 -2.6946,-10.578 -3.2403,-12.814 -3.5263,0.049 -6.4806,0.12679 -7.7571,0.39277 -4.7132,0.98191 -23.173,14.14 -25.333,16.889 -2.1602,2.7494 -7.8567,29.432 -8.6899,33.876 -0.67947,3.6238 -10.756,39.42 -15.072,54.742 l -9.9664,6.677 c 0,0 8.4374,-28.027 11.243,-34.76 2.8054,-6.7331 9.5035,-46.606 17.92,-60.633 8.4164,-14.027 49.404,-28.055 51.649,-31.421 2.0711,-3.1067 12.774,-54.856 14.483,-63.137 z m 11.979,175.17 c 0,0 16.66,53.598 16.938,54.987 0.18202,0.91011 8.4069,27.706 15.171,49.685 l -2.4548,-1.2274 2.7984,15.121 c 0,0 -14.609,-19.631 -15.171,-26.364 -0.36967,-4.4361 -13.273,-54.378 -22.289,-88.961 l 5.0078,-3.2403 z m -111.2,60.24 8.3463,3.8786 c -1.09,6.8495 -1.9242,14.007 -1.5711,18.362 0.83318,10.276 0.54005,83.896 0.54005,88.618 0,4.7214 -12.501,28.021 -11.39,30.243 1.1109,2.2218 1.651,12.789 0.54005,17.233 -1.1109,4.4436 -16.628,20.825 -17.183,25.824 -0.42353,3.8116 17.356,12.234 25.922,16.054 -0.41681,0.63733 -0.83253,1.0794 -1.2765,1.2274 -5.0498,1.6833 -15.711,-2.7984 -15.711,-2.7984 0,0 -15.697,-5.6109 -17.38,-7.8553 -1.6833,-2.2444 1.6692,-12.372 1.6692,-12.372 l 5.5969,-2.2584 c 0,0 14.048,-17.373 15.171,-24.106 1.1222,-6.7331 -1.6973,-8.9985 -2.2584,-11.243 -0.56109,-2.2444 7.8693,-16.244 10.114,-26.904 2.2444,-10.661 3.9136,-46.031 -2.2584,-74.085 -6.172,-28.055 1.1292,-39.817 1.1292,-39.817 z"
           inkscape:connector-curvature="0"
           style="fill:#677821" />
        <path
           id="path5189"
           d="m 239.91,378.83 c 0,0 -5.5545,6.3877 -7.7764,9.4427 -2.2218,3.055 -18.33,43.325 -18.608,60.544 -0.27772,0.55545 1.9441,2.4995 1.9441,2.4995 0,0 5.8323,-28.884 7.7764,-33.883 1.9441,-4.9991 16.664,-38.604 16.664,-38.604 z"
           inkscape:connector-curvature="0"
           style="fill:#dde9af" />
        <path
           id="path5191"
           d="m 236.17,384.63 c -0.30003,-1.3502 4.8229,-7.4281 5.834,-7.8861 1.0431,-0.47248 4.1884,1.3636 1.6693,2.1602 -4.7898,1.5146 -6.8767,16.273 -6.9716,15.514 -0.10904,-0.87147 -0.53163,-9.7883 -0.53163,-9.7883 z m 49.536,-40.371 c 0,6.677 -2.553,10.801 -4.5168,9.23 -1.9638,-1.5711 -4.124,-6.8734 -2.7494,-6.677 1.3747,0.19638 2.1602,2.9457 3.5349,3.1421 1.3747,0.19638 3.7313,-5.6951 3.7313,-5.6951 z m 7.6589,-19.442 c -6.6095,1.8064 -16.168,-14.382 -15.514,-15.907 l -0.78553,30.439 c 0,0 -0.98192,-4.3204 -1.5711,-9.4264 -0.58915,-5.1059 3.1421,-48.703 3.1421,-48.703 l 21.995,29.457 z"
           inkscape:connector-curvature="0"
           style="fill:#22280b" />
        <path
           id="path5193"
           d="m 305.46,351.05 2.4995,4.1659 -4.9991,86.373 c 0,0 26.662,90.261 37.771,96.371 -4.7214,1.6664 -3.8882,0.55544 -3.8882,0.55544 0,0 -19.441,-34.994 -23.329,-49.158 -3.8882,-14.164 -12.775,-45.269 -13.053,-48.047 -0.27773,-2.7773 4.9991,-90.261 4.9991,-90.261 z"
           inkscape:connector-curvature="0"
           style="fill:#dde9af" />
        <path
           id="path5195"
           d="m 210.75,486.03 -5.2768,6.3877 c 0,0 -11.665,78.319 -12.775,86.373 -1.1109,8.0541 0.55547,35.549 -0.27771,39.437 -0.83319,3.8882 -4.0817,25.764 -4.0817,26.875 0,1.1109 -1.4729,24.782 -2.0283,30.337 -0.55545,5.5545 -0.83318,20.274 -0.83318,20.274 0,0 3.7493,-30.828 4.3048,-32.772 0.55545,-1.9441 -1.0267,-17.7 -1.0267,-17.7 1.3311,-2.1109 4.8317,18.229 4.8317,18.229 l 2.4438,1.4151 -6.831,-23.001 6.5533,-21.158 -1.1109,-25.273 7.4986,-57.489 z"
           inkscape:connector-curvature="0"
           style="fill:#dde9af" />
        <path
           id="path5197"
           d="m 211.27,483.89 c -1.6833,16.833 -17.955,92.019 -16.272,118.39 1.6833,26.371 -3.3666,30.86 -3.9276,37.593 -0.56109,6.7331 6.172,24.688 6.172,24.688 l -6.172,-0.56109 c 0,0 -3.3666,36.471 -8.4164,38.154 -5.0498,1.6833 -15.711,-2.8055 -15.711,-2.8055 0,0 -15.711,-5.6109 -17.394,-7.8553 -1.6833,-2.2444 1.6833,-12.344 1.6833,-12.344 l 5.6109,-2.2444 c 0,0 14.027,-17.394 15.15,-24.127 1.1222,-6.7331 -1.6833,-8.9775 -2.2444,-11.222 -0.56109,-2.2444 7.8553,-16.272 10.1,-26.932 2.2444,-10.661 3.9276,-46.01 -2.2444,-74.064 -6.172,-28.055 1.1222,-39.838 1.1222,-39.838 l 8.4164,3.9276 7.2942,-12.905 5.0498,7.2942 z m 90.9,-177.87 c 0,0 -14.588,29.738 -13.466,32.543 1.1222,2.8055 16.833,10.1 19.077,14.588 2.2444,4.4888 -6.172,78.553 -4.4887,88.653 1.6833,10.1 22.444,80.797 39.838,97.63 -11.222,0 -13.466,-1.6833 -13.466,-1.6833 l 7.8553,15.149 -17.955,-8.9775 2.8055,15.15 c 0,0 -14.588,-19.638 -15.15,-26.371 -0.56109,-6.7331 -30.86,-121.76 -30.86,-121.76 l -37.032,5.6109 -3.3666,-28.055 c 0,0 -18.516,37.032 -20.199,62.842 l -7.8553,-8.4164 -3.3666,15.711 -3.9276,-14.027 -5.0498,5.6109 -1.1222,-2.8054 -11.783,7.8553 c 0,0 8.4164,-28.055 11.222,-34.788 2.8054,-6.7331 9.5386,-46.571 17.955,-60.598 8.4164,-14.027 49.376,-28.055 51.621,-31.421 2.2444,-3.3666 15.15,-66.209 15.15,-66.209 z"
           inkscape:connector-curvature="0"
           style="fill:none;stroke:#22280b;stroke-width:3" />
        <path
           id="path5201"
           d="m 249.47,387.33 c -0.52299,6.6251 -0.90466,11.437 -1.8656,24.204 -1.4581,19.371 -2.9626,40.747 -3.2403,48.801 -0.27773,8.0541 -8.4727,45.278 -7.709,79.369 0.59718,26.656 9.9131,40.814 10.164,50.636 -11.448,0.0157 -28.819,0.14721 -28.819,0.14721 0,0 -2.7984,-32.529 -2.7984,-52.729 0,-20.199 16.84,-90.911 16.84,-108.3 0,-17.394 2.7984,-25.235 2.7984,-25.235 0,0 -1.1362,-0.57511 5.5969,-2.2584 3.2018,-0.80046 6.3748,-7.0939 9.0336,-14.63 z"
           inkscape:connector-curvature="0"
           style="fill:#cccccc" />
        <path
           id="path5203"
           d="m 257.28,327.34 c 0,0 6.179,3.9347 8.9845,16.84 2.8055,12.9053 16.833,53.851 23.566,52.729 6.7331,-1.1222 4.7623,-54.693 3.9767,-56.853 l 5.8915,3.7313 c 3.8295,5.2041 -5.9336,116.52 -4.8114,147.39 1.1222,30.86 17.941,79.661 21.308,84.15 3.3665,4.4888 4.4747,14.069 -2.2584,14.63 -4.7104,0.39253 -41.288,0.35734 -67.947,0.39277 -0.2506,-9.8222 -9.5666,-23.98 -10.164,-50.636 -0.76375,-34.091 7.4312,-71.315 7.709,-79.369 0.27773,-8.0541 1.7822,-29.43 3.2403,-48.801 0.96097,-12.767 1.3426,-17.579 1.8656,-24.204 2.9324,-8.3121 6.0873,-18.172 6.9701,-24.646 1.6833,-12.344 -5.0568,-31.421 -5.0568,-31.421 z"
           inkscape:connector-curvature="0"
           style="fill:#ececec" />
        <path
           id="path5205"
           d="m 239.87,534.18 c 3.4059,-1.3341 3.1079,3.4506 1.1032,5.53 -2.0047,2.0794 -3.5029,-1.8631 -1.1032,-5.53 z m 6.9073,2.7358 c 2.4377,-3.2777 4.3517,-2.6226 4.3261,0.57599 -0.0256,3.19859 -2.4098,12.087 -4.3762,11.825 -1.9664,-0.26181 0.0501,-12.401 0.0501,-12.401 z m 8.1334,-11.424 c 2.7439,1.5955 1.5232,6.852 -0.0482,6.3973 -1.5714,-0.45476 -0.89308,-5.5677 0.0482,-6.3973 z m 1.5183,-15.307 c 2.3805,-2.7773 4.3643,-2.3805 4.761,1.1902 0.39676,3.5708 -1.1903,12.696 -3.5708,9.5221 -2.3805,-3.174 -1.1903,-10.712 -1.1903,-10.712 z m 8.3318,-13.093 c 1.9838,0 3.9675,4.3643 2.3805,4.761 -1.587,0.39676 -3.9675,-1.1903 -3.9675,-1.1903 z m 9.9188,19.838 c -1.9838,-6.7448 -1.1903,-7.1416 0.79349,-7.5383 1.9838,-0.39676 3.9675,13.886 2.3805,14.283 -1.587,0.39675 -3.174,-6.7448 -3.174,-6.7448 z m 19.441,18.647 c 0.79351,-3.174 4.3643,-0.39676 4.761,1.9838 0.39676,2.3805 0.79351,10.316 -1.9838,8.7286 -2.7773,-1.587 -3.5708,-9.1253 -3.5708,-9.1253 z m -7.935,-26.582 c -1.587,-7.1415 -0.79349,-13.093 1.587,-11.506 2.38049,1.587 3.5708,14.68 3.9675,17.854 0.39675,3.174 2.7772,6.3481 0,6.3481 -2.7773,0 -4.3643,-10.712 -5.5546,-12.696 z m -15.87,-12.696 c -1.1903,-5.1578 3.9675,-12.299 3.9675,-12.299 0,0 3.9675,6.7448 3.5708,11.506 -0.39676,4.761 -0.79351,9.1253 -3.174,7.1415 -2.38049,-1.9838 -3.174,-3.5708 -4.3643,-6.348 z m -22.615,9.5221 c 1.1903,-5.5545 5.9513,-7.1416 5.1578,-1.9838 -0.79349,5.1578 -1.9838,19.044 -4.761,19.838 -2.7773,0.79351 -3.9675,-0.39676 -3.5708,-4.761 0.39675,-4.3643 2.3805,-11.506 3.174,-13.093 z m -10.712,0.79351 c 3.174,-3.174 7.1416,-3.5708 5.9513,-1.1903 -1.1903,2.3805 -3.5708,6.7448 -4.761,5.9513 -1.1902,-0.79351 -1.1903,-4.761 -1.1903,-4.761 z m -2.3805,-9.5221 c 3.5708,-3.174 5.1578,-6.348 7.5383,-6.348 2.3805,0 4.3643,3.174 0.7935,4.3643 -3.5708,1.1902 -6.7448,10.712 -9.1253,10.712 -2.3805,0 0.79349,-8.7286 0.79349,-8.7286 z m 35.708,-49.197 c -4.761,0.39676 -8.7286,-4.761 -11.109,-4.761 -2.3805,0 -7.935,11.903 -8.3318,14.68 -0.39676,2.7773 -1.9838,37.691 2.3805,38.882 4.3643,1.1903 7.5383,-15.473 9.1253,-17.457 1.587,-1.9838 3.5708,-0.39674 3.9675,-1.9838 0.39674,-1.587 0,-9.9188 0,-9.9188 0,0 4.3643,5.9513 7.5383,5.1578 3.174,-0.7935 3.9675,-16.664 3.9675,-16.664 0,0 2.7773,7.1416 5.5545,7.1416 2.7772,0 -0.7935,-9.522 -1.1902,-15.473 -0.39676,-5.9513 0.39675,-21.425 -1.9838,-22.218 -2.3805,-0.7935 -7.5383,21.821 -9.9188,22.615 z"
           inkscape:connector-curvature="0"
           style="fill:#782121" />
        <path
           id="path5217"
           d="m 144.11,702.26 c 1.5711,-3.1421 4.9346,13.458 3.9276,15.318 -2.2625,4.1793 -8.5552,5.3703 -7.8553,0 0.41858,-3.2117 3.5349,-9.8191 3.9276,-15.318 z m -0.78553,-30.636 c -5.4987,3.5349 -8.2086,14.925 -1.9638,14.532 2.3844,-0.15004 0.78553,-4.3204 0.78553,-7.4625 0,-3.1421 1.1783,-7.0698 1.1783,-7.0698 z"
           inkscape:connector-curvature="0"
           style="fill:#22280b" />
        <path
           id="path5219"
           d="m 291.3,967.76 c 0.27773,3.055 7.2209,11.942 9.4427,11.942 2.2218,0 7.2209,-1.1109 6.3877,0 -0.83318,1.1109 -9.165,3.055 -11.942,2.2218 -2.7773,-0.83318 -3.8882,-12.498 -3.8882,-14.164 z"
           inkscape:connector-curvature="0"
           style="fill:#22280b" />
        <path
           id="path5221"
           d="m 258.11,326.01 c 0.93442,0.16349 1.8566,1.2059 3.8786,3.9768 2.022,2.7709 4.3468,7.191 5.7933,13.845 1.3606,6.2586 5.5961,19.745 10.261,31.372 2.3324,5.8137 4.7907,11.218 7.0207,14.974 1.115,1.8781 2.168,3.3426 3.0439,4.2222 0.8759,0.87962 1.4392,0.98752 1.4729,0.98191 -0.0819,0.0141 -0.0567,0.0157 0.14721,-0.24548 0.20392,-0.26119 0.52621,-0.77959 0.78553,-1.4729 0.51865,-1.3866 0.9585,-3.4937 1.3256,-6.0388 0.73414,-5.0902 1.1001,-11.891 1.2274,-18.755 0.12741,-6.8639 0.0399,-13.783 -0.14721,-19.098 -0.0936,-2.6577 -0.23014,-4.9318 -0.34367,-6.5788 -0.0567,-0.8235 -0.0952,-1.4868 -0.14721,-1.9638 -0.052,-0.47698 -2.0146,-3.1659 -1.9034,-2.8601 0,0 1.367,-0.83343 2.1088,-0.84881 3.137,1.1202 5.1855,3.0087 7.1028,4.6328 1.9173,1.624 1.9192,2.3978 2.0691,3.5928 0.14988,1.195 0.24289,2.7354 0.29457,4.5659 0.10338,3.661 0.0328,8.5434 -0.14721,14.385 -0.36021,11.683 -1.2001,27.08 -2.1111,43.253 -1.8221,32.347 -3.9402,67.972 -3.3876,83.168 0.55182,15.175 5.0204,35.046 9.77,51.6 2.3748,8.2769 4.8192,15.708 6.8734,21.357 1.0271,2.8244 1.9332,5.237 2.7003,7.0207 0.76702,1.7837 1.47,3.0237 1.6692,3.2894 1.9535,2.6047 3.1067,6.3583 2.9457,9.8191 -0.0804,1.7304 -0.47795,3.3819 -1.522,4.7623 -1.04405,1.3804 -4.4238,2.7493 -6.4777,2.9205 -1.9694,0.16411 -6.9867,-0.15192 -16.303,-0.0729 -9.316,0.079 -21.075,0.16132 -32.649,0.19638 -23.148,0.0702 -36.02,-0.92287 -38.242,1.9933 l -7.256,-0.97205 -1.5358,-2.3958 c 0,0 -2.7984,-32.531 -2.7984,-52.876 0,-10.536 4.2357,-33.102 8.4444,-55.478 4.2088,-22.377 8.3954,-44.637 8.3954,-52.827 0,-16.882 2.5909,-24.67 2.7984,-25.284 -0.003,-0.0419 -0.0492,-0.0544 -0.0492,-0.0982 0,-0.17909 0.11217,-0.24865 0.14721,-0.39277 0.16285,-0.66855 0.55424,-1.0399 0.93281,-1.2765 0.92036,-0.57522 2.367,-1.1072 5.7933,-1.9638 0.84649,-0.21162 2.4561,-1.7187 3.9767,-4.3695 1.5207,-2.6508 3.0221,-6.2879 4.3695,-10.261 2.6948,-7.9462 4.7738,-17.284 5.5969,-23.32 0.78909,-5.7868 -0.41316,-13.561 -1.8656,-19.786 -1.4525,-6.2249 -2.1904,-8.8163 -2.1904,-8.8163 l -2.6637,1.1333 c 0,0 -1.162,-3.3257 1.1986,-4.3672 l 6.7955,-4.136 c 1.3528,-0.82333 1.6276,-0.71155 2.8004,-0.50636 z m -5.6951,5.9897 c 0.32406,0.94304 1.4758,4.2978 2.7984,9.9664 1.4933,6.3997 2.858,14.358 1.9638,20.915 -0.86016,6.3078 -3.0174,15.773 -5.7933,23.959 -1.3879,4.0926 -2.9269,7.8584 -4.615,10.801 -1.6881,2.9426 -3.4205,5.2124 -5.9406,5.8424 -3.1058,0.77645 -4.2403,1.3002 -4.5659,1.4729 -0.10683,0.30222 -2.6512,7.6272 -2.6512,24.499 0,9.2038 -4.2368,30.996 -8.4444,53.367 -4.2076,22.371 -8.3954,45.275 -8.3954,54.938 0,19.293 2.5036,49.676 2.7003,51.991 1.3764,-7e-5 21.597,-0.81448 43.99,-0.88235 11.571,-0.035 23.343,-0.11751 32.649,-0.19638 9.3053,-0.0789 16.326,-0.17814 17.724,-0.29458 1.3126,-0.10934 2.0189,-0.57034 2.553,-1.2765 0.53407,-0.70615 0.82393,-1.7585 0.88372,-3.0439 0.11956,-2.571 -0.89443,-5.873 -2.3075,-7.7571 -0.64233,-0.85645 -1.2597,-2.1111 -2.062,-3.9768 -0.80228,-1.8656 -1.7565,-4.3026 -2.7984,-7.168 -2.0839,-5.7308 -4.528,-13.207 -6.9225,-21.553 -4.789,-16.691 -9.2979,-36.7 -9.8682,-52.385 -0.56961,-15.664 1.6152,-51.126 3.4367,-83.463 0.91076,-16.168 1.7038,-31.535 2.062,-43.155 0.17913,-5.81 0.24736,-10.693 0.14721,-14.238 -0.0501,-1.7721 -0.11721,-3.1996 -0.24548,-4.2222 -0.11469,-0.9142 -0.33118,-1.3469 -0.24548,-1.2765 l -2.7494,-1.7183 c 0.11453,1.6875 0.25125,3.9042 0.34367,6.5297 0.189,5.369 0.27596,12.31 0.14721,19.245 -0.12882,6.9354 -0.45798,13.813 -1.2274,19.147 -0.3847,2.6674 -0.86155,4.9606 -1.522,6.7261 -0.33021,0.88278 -0.72059,1.6594 -1.2274,2.3075 -0.50681,0.64805 -1.2366,1.2207 -2.1602,1.3747 -1.6496,0.27493 -2.9822,-0.66965 -4.1731,-1.8656 -1.1909,-1.19595 -2.3441,-2.8548 -3.5349,-4.8605 -2.3815,-4.0114 -4.8994,-9.4678 -7.2662,-15.367 -4.7334,-11.798 -8.9143,-25.217 -10.359,-31.863 -1.359,-6.2512 -3.537,-10.247 -5.3023,-12.667 -1.415,-1.9391 -2.0323,-2.2832 -2.2189,-2.418 z"
           inkscape:connector-curvature="0"
           style="fill:#b3b3b3" />
      </g>
      <g
         id="g5599"
         transform="translate(7.4887,-4.4932)">
        <g
           id="g4950"
           transform="matrix(0.25056,0,0,0.25056,233.25,72.203)"
           style="stroke:#22280b;stroke-width:7.98199987">
          <path
             id="path4928"
             d="m 119.07,177.48 c -22.324,-45.273 -19.815,-60.016 17.973,-63.654 -6.9101,-23.423 10.763,-58.924 38.941,-35.946 1.6641,-11.439 42.422,-24.171 41.188,-8.9864 -6.953,85.528 -17.493,189.19 -68.896,137.79 -10.644,-10.644 -26.064,-13.498 -29.206,-29.206 z"
             transform="translate(0,62.362)"
             inkscape:connector-curvature="0"
             style="fill:#e9afc6" />
          <path
             id="path4944"
             d="m 134.05,167 c -3.2238,4.6785 -14.586,-16.117 -7.4886,-23.215 6.6359,-6.6359 15.504,4.7155 20.219,0 4.5268,-4.5268 6.0285,-32.182 22.466,-23.964 8.7359,4.368 4.1574,21.717 17.224,21.717"
             transform="translate(0,62.362)"
             inkscape:connector-curvature="0"
             style="fill:none" />
          <path
             id="path4948"
             d="m 164,72.64 c -14.028,6.4683 -11.36,32.922 2.2466,31.452 14.272,-1.5416 32.201,-30.476 32.201,1.4977"
             transform="translate(0,62.362)"
             inkscape:connector-curvature="0"
             style="fill:none" />
        </g>
        <path
           id="path4785"
           d="m 308.68,224.8 c 1.5064,14.096 -3.2809,28.395 -1.1258,42.406 2.1553,14.013 11.664,26.682 24.518,32.666 12.853,5.9834 28.67,5.1037 40.78,-2.2684 -3.7017,5.6692 -8.5913,10.559 -14.26,14.26 -12.723,8.3077 -29.232,10.244 -43.762,5.7972 -14.53,-4.4464 -26.937,-15.019 -34.295,-28.314 -5.7321,-10.357 -8.4804,-22.156 -9.477,-33.951 -0.9966,-11.796 -0.3052,-23.662 0.47044,-35.475 0.78895,-12.015 1.6646,-24.024 2.6269,-36.026 9.113,2.5734 17.421,7.9276 23.528,15.164 6.1078,7.2364 9.9906,16.325 10.997,25.741"
           inkscape:connector-curvature="0"
           style="fill:#a02c2c;stroke:#22280b;stroke-width:2" />
        <path
           id="path4789"
           d="m 296.67,304.36 c 0.81656,-6.1502 5.6592,-9.8875 21.015,-9.0066 -0.92241,-0.0481 -2.1765,-0.12754 -4.4449,-0.26521 5.4273,-18.55 39.472,-1.4911 37.434,13.235 0.0444,0.78388 0.0569,1.5892 0.0355,2.4161 -38.944,18.788 -47.999,-1.5314 -54.04,-6.3797 z"
           inkscape:connector-curvature="0"
           style="fill:#e9afc6;stroke:#22280b;stroke-width:2;stroke-linecap:round" />
        <g
           id="g4866"
           transform="matrix(0.25056,0,0,0.25056,233.25,72.203)"
           style="stroke:#22280b;stroke-width:7.98199987">
          <path
             id="rect4803"
             d="m 416.37,602.09 56.914,-10.484 14.977,47.927 -82.375,11.982 z"
             transform="translate(0,62.362)"
             style="fill:url(#linearGradient5765)"
             inkscape:connector-curvature="0" />
          <path
             id="path4806"
             d="m 620.06,592.56 32.95,-16.475 35.946,25.461 -49.425,44.932 z"
             style="fill:url(#linearGradient5767)"
             inkscape:connector-curvature="0" />
          <path
             id="path4808"
             d="m 272.59,646.48 -46.43,-28.457 -25.461,38.941 61.407,34.448 z"
             style="fill:url(#linearGradient5769)"
             inkscape:connector-curvature="0" />
          <path
             id="path4810"
             d="m 404.39,953.51 -56.914,10.484 -14.977,-47.927 65.9,-10.484 z"
             style="fill:url(#linearGradient5771)"
             inkscape:connector-curvature="0" />
        </g>
        <path
           id="path4780"
           d="m 275.28,126.86 c 0.0233,-0.30214 3.4531,6.3147 3.4531,6.3147 0,0 1.6193,-9.0666 0.77238,-12.373 2.9058,-4.8079 8.1132,-13.545 7.8273,-18.872 24.22,-6.5785 57.639,-5.386 78.592,-0.32744 11.461,2.7014 18.113,3.8153 26.066,12.499 7.8849,8.6089 4.6832,24.154 4.1972,35.818 -0.486,11.664 -0.87734,18.554 -2.6962,28.729 8.7341,-1.4241 13.347,-0.6922 13.327,8.4217 -0.0196,9.1139 -4.3471,12.905 -6.5722,13.72 l 8.256,9.7572 c -16.237,12.3 -34.801,21.518 -54.415,27.02 -10.17,2.8527 -20.724,4.7207 -31.271,4.1396 -10.547,-0.58106 -21.127,-3.7362 -29.524,-10.144 -15.027,-9.8537 -15.561,-25.733 -16.512,-41.28 1.4584,35.129 1.1334,65.612 6.0752,94.871 1.7513,10.676 14.116,15.312 25.448,19.963 9.3976,3.8572 29.738,6.2682 39.656,4.0716 9.9181,-2.1966 18.752,-4.4877 25.642,-11.952 l -3.3775,10.132 c 4.2477,2.652 9.7469,4.3891 10.132,9.3819 0.14636,14.446 -20.187,13.914 -36.233,10.201 -6.7351,1.0408 -29.1,1.1782 -34.694,-0.0683 -13.692,-3.0505 -37.316,5.0058 -42.031,-63.421 -1.4205,-20.616 0.13842,-39.218 -1.8764,-59.669 -0.43405,3.956 -2.7744,7.659 -6.1613,9.7488 -3.3869,2.0898 -7.7462,2.5206 -11.477,1.1342 2.2555,-2.0572 -0.20845,-6.6174 -4.4711,-6.607 3.1605,-2.5444 2.1137,-7.7179 -3.097,-7.0367 3.6973,-3.7201 -1.2788,-8.3572 -3.3178,-7.242 0.062,-2.7992 0.3825,-5.6121 0.75348,-8.3857 0.54604,-4.0825 1.2165,-8.2152 2.9702,-11.942 0.87681,-1.8635 2.024,-3.6111 3.4792,-5.0684 1.4552,-1.4573 3.2252,-2.6189 5.1842,-3.2542 3.2508,-1.0544 6.9667,-0.56336 9.8321,1.2992 2.8654,1.8625 4.8227,5.0591 5.1789,8.458 0.50954,-22.044 -7.9607,-29.206 -4.6752,-47.088 5.5371,3.1336 15.558,-0.94691 15.558,-0.94691 z"
           inkscape:connector-curvature="0"
           style="fill:#89a02c;stroke:#22280b;stroke-width:2" />
        <path
           id="path4794"
           d="m 402.42,160.13 c 0,17.738 -14.379,32.117 -32.117,32.117 -17.738,0 -32.117,-14.379 -32.117,-32.117 0,-17.738 14.379,-32.117 32.117,-32.117 17.738,0 32.117,14.379 32.117,32.117 z"
           inkscape:connector-curvature="0"
           style="fill:#677821;stroke:#22280b;stroke-width:1.5" />
        <path
           id="path4797"
           d="m 344.34,165.48 c 0,15.014 -12.172,27.186 -27.186,27.186 -15.014,0 -27.186,-12.172 -27.186,-27.186 0,-15.014 12.172,-27.186 27.186,-27.186 15.014,0 27.186,12.172 27.186,27.186 z"
           inkscape:connector-curvature="0"
           style="fill:#677821;stroke:#22280b;stroke-width:1.5" />
        <path
           id="path4799"
           d="m 400.33,158.13 c 0,17.068 -13.836,30.904 -30.904,30.904 -17.068,0 -30.904,-13.836 -30.904,-30.904 0,-17.068 13.836,-30.904 30.904,-30.904 17.068,0 30.904,13.836 30.904,30.904 z"
           inkscape:connector-curvature="0"
           style="fill:#f5ffb4;stroke:#22280b;stroke-width:2" />
        <path
           id="path4801"
           d="m 344.45,163.28 c 0,14.447 -11.712,26.159 -26.159,26.159 -14.447,0 -26.159,-11.712 -26.159,-26.159 0,-14.447 11.712,-26.159 26.159,-26.159 14.447,0 26.159,11.712 26.159,26.159 z"
           inkscape:connector-curvature="0"
           style="fill:#f5ffb4;stroke:#22280b;stroke-width:2" />
        <path
           id="path4816"
           d="m 270.12,193 c 7.3176,-4.2947 7.9435,-2.7138 12.694,-2.296"
           inkscape:connector-curvature="0"
           style="fill:none;stroke:#22280b;stroke-width:2;stroke-linecap:round;stroke-linejoin:round" />
        <path
           id="path4818"
           d="m 296.24,190.65 c -21.977,-5.286 -11.333,22.953 -6.0044,23.642"
           inkscape:connector-curvature="0"
           style="fill:#89a02c;stroke:#22280b;stroke-width:2;stroke-linecap:round;stroke-linejoin:round" />
        <path
           id="path4820"
           d="m 343.35,179.02 c 5.4942,-1.3215 15.329,0.20286 17.339,2.1177 2.0093,1.9148 6.7952,13.022 5.6601,22.098 -1.1351,9.0768 -42.17,2.0962 -21.122,-15.209"
           inkscape:connector-curvature="0"
           style="fill:#89a02c;stroke:#22280b;stroke-width:2;stroke-linecap:round;stroke-linejoin:round" />
        <path
           id="path4825"
           d="m 324.07,165.89 c 0,2.9016 -2.3522,5.2538 -5.2538,5.2538 -2.9016,0 -5.2538,-2.3522 -5.2538,-5.2538 0,-2.9016 2.3522,-5.2538 5.2538,-5.2538 2.9016,0 5.2538,2.3522 5.2538,5.2538 z"
           inkscape:connector-curvature="0"
           style="fill:#89a02c" />
        <path
           id="path4828"
           d="m 322.24,165.89 c 0,1.8895 -1.5317,3.4212 -3.4212,3.4212 -1.8895,0 -3.4212,-1.5317 -3.4212,-3.4212 0,-1.8895 1.5317,-3.4212 3.4212,-3.4212 1.8895,0 3.4212,1.5317 3.4212,3.4212 z"
           inkscape:connector-curvature="0" />
        <path
           id="path4830"
           d="m 374.36,165.89 c 0,2.9016 -2.3522,5.2538 -5.2538,5.2538 -2.9016,0 -5.2538,-2.3522 -5.2538,-5.2538 0,-2.9016 2.3522,-5.2538 5.2538,-5.2538 2.9016,0 5.2538,2.3522 5.2538,5.2538 z"
           inkscape:connector-curvature="0"
           style="fill:#89a02c" />
        <path
           id="path4832"
           d="m 372.52,165.89 c 0,1.8895 -1.5317,3.4212 -3.4212,3.4212 -1.8895,0 -3.4212,-1.5317 -3.4212,-3.4212 0,-1.8895 1.5317,-3.4212 3.4212,-3.4212 1.8895,0 3.4212,1.5317 3.4212,3.4212 z"
           inkscape:connector-curvature="0" />
        <path
           id="path4834"
           d="m 326.37,162.13 c 0,1.8895 -1.5317,3.4212 -3.4212,3.4212 -1.8895,0 -3.4212,-1.5317 -3.4212,-3.4212 0,-1.8895 1.5317,-3.4212 3.4212,-3.4212 1.8895,0 3.4212,1.5317 3.4212,3.4212 z"
           inkscape:connector-curvature="0"
           style="fill:#fbffe4" />
        <path
           id="path4836"
           d="m 376.65,162.13 c 0,1.8895 -1.5317,3.4212 -3.4212,3.4212 -1.8895,0 -3.4212,-1.5317 -3.4212,-3.4212 0,-1.8895 1.5317,-3.4212 3.4212,-3.4212 1.8895,0 3.4212,1.5317 3.4212,3.4212 z"
           inkscape:connector-curvature="0"
           style="fill:#fbffe4" />
        <path
           id="path4872"
           d="m 376.23,317.87 c 5.8062,-0.64564 7.8006,0.98189 11.634,3.3775"
           inkscape:connector-curvature="0"
           style="fill:none;stroke:#22280b;stroke-width:2;stroke-linecap:round;stroke-linejoin:round" />
        <path
           id="path4874"
           d="m 372.11,321.62 c 4.5492,0.52059 5.5537,3.0381 6.3797,6.755"
           inkscape:connector-curvature="0"
           style="fill:none;stroke:#22280b;stroke-width:2;stroke-linecap:round;stroke-linejoin:round" />
        <path
           id="path4876"
           d="m 342.08,103.59 c 6.7231,-9.4617 16.523,-12.759 27.77,-12.759"
           inkscape:connector-curvature="0"
           style="fill:none;stroke:#22280b;stroke-width:2;stroke-linecap:round;stroke-linejoin:round" />
        <path
           id="path4878"
           d="m 356.34,106.59 c 13.315,-3.68 31.234,-5.6326 43.907,0"
           inkscape:connector-curvature="0"
           style="fill:none;stroke:#22280b;stroke-width:2;stroke-linecap:round;stroke-linejoin:round" />
        <path
           id="path4880"
           d="m 292.92,109.97 c 2.0161,-7.3801 1.1258,-16.581 1.1258,-24.768"
           inkscape:connector-curvature="0"
           style="fill:none;stroke:#22280b;stroke-width:2;stroke-linecap:round;stroke-linejoin:round" />
        <path
           id="path4884"
           d="m 267.03,144.12 c -4.6582,-6.7756 -11.271,-8.256 -19.514,-8.256"
           inkscape:connector-curvature="0"
           style="fill:none;stroke:#22280b;stroke-width:2;stroke-linecap:round;stroke-linejoin:round" />
        <path
           id="path4886"
           d="m 256.9,192.16 c 1.6626,-9.9507 -2.0482,-14.053 -9.3819,-15.386"
           inkscape:connector-curvature="0"
           style="fill:none;stroke:#22280b;stroke-width:2;stroke-linecap:round;stroke-linejoin:round" />
        <g
           id="g5578"
           style="fill:#758826">
          <path
             id="path4888"
             d="m 639.53,465.79 c 0,11.58 -9.3878,20.968 -20.968,20.968 -11.5802,0 -20.968,-9.3878 -20.968,-20.968 0,-11.5802 9.3878,-20.968 20.968,-20.968 11.5802,0 20.968,9.3878 20.968,20.968 z"
             transform="matrix(0.25056,0,0,0.25056,233.25,87.829)"
             inkscape:connector-curvature="0" />
          <path
             id="path4890"
             d="m 644.02,410.38 c 0,6.6174 -5.3644,11.982 -11.982,11.982 -6.6174,0 -11.982,-5.3644 -11.982,-11.982 0,-6.6174 5.3645,-11.982 11.982,-11.982 6.6174,0 11.982,5.3644 11.982,11.982 z"
             transform="matrix(0.25056,0,0,0.25056,233.25,87.829)"
             inkscape:connector-curvature="0" />
          <path
             id="path4892"
             d="m 584.11,103.34 c 0,7.4446 -6.035,13.48 -13.48,13.48 -7.4446,0 -13.48,-6.035 -13.48,-13.48 0,-7.4446 6.035,-13.48 13.48,-13.48 7.4446,0 13.48,6.035 13.48,13.48 z"
             transform="matrix(0.25056,0,0,0.25056,225,87.078)"
             inkscape:connector-curvature="0" />
          <path
             id="path4894"
             d="m 624.55,109.33 c 0,6.6174 -5.3644,11.982 -11.982,11.982 -6.6174,0 -11.982,-5.3645 -11.982,-11.982 0,-6.6174 5.3645,-11.982 11.982,-11.982 6.6174,0 11.982,5.3645 11.982,11.982 z"
             transform="matrix(0.25056,0,0,0.25056,231.75,96.085)"
             inkscape:connector-curvature="0" />
          <path
             id="path4896"
             d="m 609.58,127.31 c 0,11.58 -9.3878,20.968 -20.968,20.968 -11.5802,0 -20.968,-9.3878 -20.968,-20.968 0,-11.5802 9.3878,-20.968 20.968,-20.968 11.5802,0 20.968,9.3878 20.968,20.968 z"
             transform="matrix(0.25056,0,0,0.25056,232.88,82.95)"
             inkscape:connector-curvature="0" />
          <path
             id="path4898"
             d="m 290.56,77.882 c 0,7.4446 -6.035,13.48 -13.48,13.48 -7.4446,0 -13.48,-6.035 -13.48,-13.48 0,-7.4446 6.035,-13.48 13.48,-13.48 7.4446,0 13.48,6.035 13.48,13.48 z"
             transform="matrix(0.25056,0,0,0.25056,233.25,87.829)"
             inkscape:connector-curvature="0" />
          <path
             id="path4900"
             d="m 238.14,137.79 c 0,6.6174 -5.3645,11.982 -11.982,11.982 -6.6174,0 -11.982,-5.3645 -11.982,-11.982 0,-6.6174 5.3644,-11.982 11.982,-11.982 6.6174,0 11.982,5.3645 11.982,11.982 z"
             transform="matrix(0.25056,0,0,0.25056,233.25,87.829)"
             inkscape:connector-curvature="0" />
          <path
             id="path4902"
             d="m 277.08,151.27 c 0,11.58 -9.3878,20.968 -20.968,20.968 -11.5802,0 -20.968,-9.3878 -20.968,-20.968 0,-11.5802 9.3878,-20.968 20.968,-20.968 11.5802,0 20.968,9.3878 20.968,20.968 z"
             transform="matrix(0.25056,0,0,0.25056,233.25,87.829)"
             inkscape:connector-curvature="0" />
          <path
             id="path4904"
             d="m 227.66,182.72 c 0,11.58 -9.3878,20.968 -20.968,20.968 -11.5802,0 -20.968,-9.3878 -20.968,-20.968 0,-11.5802 9.3878,-20.968 20.968,-20.968 11.5802,0 20.968,9.3878 20.968,20.968 z"
             transform="matrix(0.25056,0,0,0.25056,233.25,87.829)"
             inkscape:connector-curvature="0" />
          <path
             id="path4906"
             d="m 145.28,377.43 c 0,7.4446 -6.035,13.48 -13.48,13.48 -7.4446,0 -13.48,-6.035 -13.48,-13.48 0,-7.4446 6.035,-13.48 13.48,-13.48 7.4446,0 13.48,6.035 13.48,13.48 z"
             transform="matrix(0.25056,0,0,0.25056,233.25,87.829)"
             inkscape:connector-curvature="0" />
          <path
             id="path4908"
             d="m 166.25,326.51 c 0,10.753 -8.7172,19.47 -19.47,19.47 -10.7528,0 -19.47,-8.7172 -19.47,-19.47 0,-10.7528 8.7172,-19.47 19.47,-19.47 10.7528,0 19.47,8.7172 19.47,19.47 z"
             transform="matrix(0.25056,0,0,0.25056,233.25,87.829)"
             inkscape:connector-curvature="0" />
          <path
             id="path4910"
             d="m 313.03,534.69 c 0,7.4446 -6.035,13.48 -13.48,13.48 -7.4446,0 -13.48,-6.035 -13.48,-13.48 0,-7.4446 6.035,-13.48 13.48,-13.48 7.4446,0 13.48,6.035 13.48,13.48 z"
             transform="matrix(0.25056,0,0,0.25056,233.25,87.829)"
             inkscape:connector-curvature="0" />
          <path
             id="path4912"
             d="m 320.51,465.79 c 0,14.062 -11.399,25.461 -25.461,25.461 -14.062,0 -25.461,-11.399 -25.461,-25.461 0,-14.062 11.399,-25.461 25.461,-25.461 14.062,0 25.461,11.399 25.461,25.461 z"
             transform="matrix(0.25056,0,0,0.25056,233.25,87.829)"
             inkscape:connector-curvature="0" />
          <path
             id="path4914"
             d="m 348.97,509.23 c 0,9.9261 -8.0467,17.973 -17.973,17.973 -9.9261,0 -17.973,-8.0467 -17.973,-17.973 0,-9.9261 8.0467,-17.973 17.973,-17.973 9.9261,0 17.973,8.0467 17.973,17.973 z"
             transform="matrix(0.25056,0,0,0.25056,233.25,87.829)"
             inkscape:connector-curvature="0" />
          <path
             id="path4916"
             d="m 244.13,891.15 c 0,8.2717 -6.7056,14.977 -14.977,14.977 -8.2717,0 -14.977,-6.7056 -14.977,-14.977 0,-8.2717 6.7056,-14.977 14.977,-14.977 8.2717,0 14.977,6.7056 14.977,14.977 z"
             transform="matrix(0.25056,0,0,0.25056,233.25,87.829)"
             inkscape:connector-curvature="0" />
          <path
             id="path4918"
             d="m 289.06,919.61 c 0,11.58 -9.3878,20.968 -20.968,20.968 -11.5802,0 -20.968,-9.3878 -20.968,-20.968 0,-11.5802 9.3878,-20.968 20.968,-20.968 11.5802,0 20.968,9.3878 20.968,20.968 z"
             transform="matrix(0.25056,0,0,0.25056,233.25,87.829)"
             inkscape:connector-curvature="0" />
          <path
             id="path4920"
             d="m 271.09,877.67 c 0,4.963 -4.0233,8.9864 -8.9864,8.9864 -4.963,0 -8.9864,-4.0233 -8.9864,-8.9864 0,-4.963 4.0233,-8.9864 8.9864,-8.9864 4.963,0 8.9864,4.0233 8.9864,8.9864 z"
             transform="matrix(0.25056,0,0,0.25056,233.25,87.829)"
             inkscape:connector-curvature="0" />
          <path
             id="path4922"
             d="m 86.868,473.28 c 0,3.3087 -2.6822,5.9909 -5.9909,5.9909 -3.3087,0 -5.9909,-2.6822 -5.9909,-5.9909 0,-3.3087 2.6822,-5.9909 5.9909,-5.9909 3.3087,0 5.9909,2.6822 5.9909,5.9909 z"
             transform="matrix(0.25056,0,0,0.25056,233.25,87.829)"
             inkscape:connector-curvature="0" />
          <path
             id="path4924"
             d="m 109.33,462.8 c 0,7.4446 -6.035,13.48 -13.48,13.48 -7.4446,0 -13.48,-6.035 -13.48,-13.48 0,-7.4446 6.035,-13.48 13.48,-13.48 7.4446,0 13.48,6.035 13.48,13.48 z"
             transform="matrix(0.25056,0,0,0.25056,233.25,87.829)"
             inkscape:connector-curvature="0" />
        </g>
      </g>
    </g>
  </g>
</svg>
